<svg xmlns="http://www.w3.org/2000/svg" width="960" height="640" viewBox="1008 0 960 640"><path fill="#0B0B0B" d="M1009 40h860.972v461.46H1009z"/><path fill="#DADADA" d="M1008 40V10c0-5.5 4.5-10 10-10h842.972c5.5 0 10 4.5 10 10v30"/><circle fill="#FFF" cx="1033.381" cy="20" r="8.5"/><circle fill="#FFF" cx="1057.132" cy="20" r="8.5"/><circle fill="#FFF" cx="1080.883" cy="20" r="8.5"/><path fill="#DADADA" d="M1008 36v467.46h862.972V36H1008zm4 463.46V40h854.972v459.46H1012z"/><path fill="#FFF" d="M1106.996 228.45H1968V636h-861.004z"/><path fill="#009347" stroke="#FFF" stroke-width=".586" stroke-miterlimit="10" d="M1191.377 561.508h258.05v40h-258.05z"/><path fill="#D2D2D2" d="M1192.648 346.387h402.215v20h-402.215zm0 40.003h402.215v20h-402.215zm0 40h402.215v20.002h-402.215zm0 40.003h402.215v20h-402.215zm0 40.002h285.46v20h-285.46z"/><path d="M1055.264 66.6v.127c0 .255-.255.255-.255.764v1.528c2.417.254 4.58 1.272 5.98 3.054l-1.782 2.163c-.127 0-.255-.127-.255-.254v-.38s0-.128-.127-.255c-.89-1.018-2.163-1.78-3.817-2.036v8.016c.89.254 1.908.636 2.672 1.018.89.255 4.07 1.654 4.07 5.344 0 2.927-2.162 6.107-6.743 6.744v2.545h-2.418V92.43c-2.8-.127-5.345-1.272-7.126-3.18l1.78-2.42c.256.128.13.383.13.383 0 .127 0 .254.126.508 1.145 1.273 2.926 2.292 5.09 2.546V81.36c-.764-.254-1.527-.51-2.29-.89-3.437-1.655-4.073-3.945-4.073-5.345 0-2.927 2.544-5.472 6.362-5.854V66.6h2.672zm-2.672 4.835c-2.545.254-3.69 1.78-3.69 3.18 0 .892.382 2.164 2.163 3.182.382.255.89.51 1.4.637v-7h.127zm2.417 18.705c2.672-.51 4.07-2.29 4.07-4.2 0-.89-.254-2.163-2.035-3.18-.51-.255-1.272-.51-2.036-.764v8.144zm45.298-10.18c-.38-.254-.127-.636-.254-.89-.127-.255-1.654-2.418-4.835-2.418-3.436 0-6.107 2.672-6.107 6.87 0 4.327 2.8 7.38 6.363 7.38 1.908 0 3.69-.763 4.962-2.29l1.654 1.91c-1.783 1.908-4.2 2.925-6.872 2.925-5.218 0-9.16-4.2-9.16-9.797s3.942-9.67 9.287-9.67c3.054 0 5.472 1.272 7 3.436l-2.038 2.544zm23.541-11.58l-1.273 2.673c-.127 0-.254 0-.38-.382 0-.126 0-.253-.128-.508-.764-1.145-2.29-2.164-4.072-2.164-1.527 0-2.927.637-3.69 2.036-.636 1.272-.636 2.672-.636 4.072v1.4h6.106v2.29h-6.107v15.14h-2.8V77.925h-4.072v-2.29h4.072V73.85c0-1.654.127-3.18 1.018-4.708 1.27-2.163 3.69-3.18 6.36-3.18 2.29-.128 4.326.763 5.6 2.417zm26.466 6.11v2.798c1.27-2.036 3.435-3.308 5.853-3.308 3.69 0 7.507 2.926 7.507 9.543 0 6.87-3.943 10.052-7.762 10.052-2.29 0-4.326-1.145-5.598-2.927v9.29h-2.928V74.615h2.928v-.127zm.508 4.834c-.38 1.018-.508 2.036-.508 3.69 0 2.672 0 4.2.508 5.47.764 1.655 2.545 2.546 4.2 2.546 1.78 0 5.6-.89 5.6-6.744 0-6.744-3.946-7.635-5.6-7.635-1.782.002-3.563 1.02-4.2 2.674zm19.978-4.834v10.306c0 1.272 0 2.672.636 4.07.764 1.528 2.036 2.292 3.563 2.292 1.78 0 3.435-1.145 4.325-2.8.636-1.144.763-2.29.763-3.69V74.49h2.928v16.924c0 .51 0 1.146.254 1.654h-3.182c-.127-.508-.127-1.018-.127-1.4v-1.4c-1.27 2.037-3.435 3.31-5.724 3.31-2.418 0-4.71-1.4-5.727-3.817-.765-1.655-.765-3.31-.765-4.836V74.616h3.054v-.127zm30.665 5.09c-.127 0-.254-.128-.254-.383 0-.127 0-.254-.126-.382-.764-.89-2.545-2.545-5.217-2.545-2.164 0-3.945 1.018-3.945 2.545 0 .636.383 1.527 1.78 2.29 1.782.892 4.71 1.273 6.872 2.418 2.164 1.273 2.673 2.926 2.673 4.2 0 2.8-2.673 5.853-7.763 5.853-2.8 0-5.725-.89-7.89-2.927l1.655-2.928c.253.127.126.382.126.382 0 .127 0 .255.127.382.637.636 2.673 2.545 5.854 2.545 2.672 0 4.836-1.144 4.836-2.926 0-.636-.383-1.654-1.91-2.417-1.398-.636-3.434-1.145-4.96-1.654-1.02-.38-4.582-1.527-4.582-4.835 0-2.8 2.8-5.217 7.127-5.217 2.8 0 5.217 1.02 6.998 2.927l-1.4 2.672zm7.381-13.49h3.436v.128c0 .254-.127.38-.254.38-.128.128-.128.255-.128.383v10.816c1.4-2.036 3.69-3.69 6.235-3.69 2.162 0 4.07 1.146 4.962 3.308.636 1.527.636 3.054.636 4.454v11.325h-2.926V81.87c0-1.273 0-2.928-1.018-4.073-.638-.763-1.528-1.145-2.546-1.145-1.91 0-3.818 1.654-4.454 2.545-.763 1.018-.89 1.91-.89 3.18v10.69h-2.928V66.09h-.126zm39.318 8.4h2.672v1.78c.89-1.272 2.29-2.29 3.816-2.29 1.654 0 3.055 1.145 3.31 2.672a4.615 4.615 0 014.198-2.672c1.018 0 2.164.38 2.927 1.527.764 1.272.764 2.8.764 4.326v13.233h-2.8V79.96c0-.89.13-1.908-.253-2.672-.255-.636-.89-1.018-1.527-1.018-1.145 0-1.908 1.145-2.163 1.654-.636 1.145-.764 1.91-.764 2.927v12.343h-2.8V80.215c0-.764 0-1.654-.127-2.418-.254-1.018-1.018-1.4-1.78-1.4s-1.528.51-2.29 1.782c-.51 1.017-.637 1.78-.637 2.67v12.343h-2.674V74.49h.128zm24.43 0c0 .38-.127.508-.127.89 0 .127 0 .254.127.382l5.472 13.742 3.563-9.925c.507-1.655 1.144-3.31 1.398-4.963h3.054a45.391 45.391 0 01-1.908 5.344l-5.854 15.397c-.382 1.018-.764 2.036-1.654 2.927-1.272 1.4-2.927 2.036-4.708 2.036-1.526 0-2.927-.51-4.07-1.527l1.525-2.672c.255.128.255.51.382.637.127.255.764 1.146 2.163 1.146.89 0 1.78-.382 2.545-1.146.636-.636 1.018-1.4 1.272-2.163l.637-1.4-7.508-18.577h3.69v-.128zm32.32 4.452v2.672h-14.633v-2.672h14.634zm13.106-4.835c2.927 0 5.217 1.018 6.49 3.054.89 1.4.89 2.927.89 4.454v11.58h-2.8v-2.037c-2.035 1.654-4.452 2.545-6.615 2.545-3.945 0-6.235-2.545-6.235-5.217 0-2.036 1.272-4.2 4.327-5.344 2.417-.89 5.344-.89 8.016-.89h.637v-.637c0-1.018 0-2.163-.637-3.18-.51-.892-1.654-1.783-3.817-1.783-1.78 0-3.817.51-5.345 2.036l-1.397-1.908c1.652-1.907 4.07-2.67 6.487-2.67zm4.072 10.307c-1.908 0-4.453-.127-6.107.255-2.29.507-3.31 2.035-3.31 3.434 0 1.654 1.4 3.182 3.945 3.182 2.418 0 4.2-1.527 4.835-2.164 1.273-1.272 1.273-2.545 1.273-3.562v-1.272h-.637v.126zm11.451-9.924v2.798c1.273-2.036 3.436-3.308 5.854-3.308 3.69 0 7.508 2.926 7.508 9.543 0 6.87-3.944 10.052-7.762 10.052-2.29 0-4.326-1.145-5.6-2.927v9.29h-2.926V74.615h2.926v-.127zm.51 4.834c-.382 1.018-.51 2.036-.51 3.69 0 2.672 0 4.2.51 5.47.764 1.655 2.545 2.546 4.198 2.546 1.783 0 5.6-.89 5.6-6.744 0-6.744-3.944-7.635-5.6-7.635-1.78.002-3.56 1.02-4.197 2.674zm19.849-4.834v2.798c1.272-2.036 3.436-3.308 5.854-3.308 3.69 0 7.507 2.926 7.507 9.543 0 6.87-3.944 10.052-7.76 10.052-2.292 0-4.328-1.145-5.6-2.927v9.29h-2.927V74.615h2.926v-.127zm.51 4.834c-.383 1.018-.51 2.036-.51 3.69 0 2.672 0 4.2.51 5.47.763 1.655 2.545 2.546 4.2 2.546 1.78 0 5.597-.89 5.597-6.744 0-6.744-3.945-7.635-5.6-7.635-1.78.002-3.563 1.02-4.198 2.674z" fill="#C2F297"/><path fill="#DADADA" d="M1105.996 178.1v-30c0-5.5 4.5-10 10-10H1958c5.5 0 10 4.5 10 10v30"/><circle fill="#FFF" cx="1131.377" cy="158.099" r="8.5"/><circle fill="#FFF" cx="1155.128" cy="158.099" r="8.5"/><circle fill="#FFF" cx="1178.879" cy="158.099" r="8.5"/><path fill="#0B0B0B" d="M1106.996 241.45H1967v65h-860.004z"/><path d="M1200.12 267.276a2.627 2.627 0 003.44-1.42 2.63 2.63 0 00-1.433-3.44c-1.327-.547-2.87.105-3.423 1.445a2.617 2.617 0 001.415 3.416m-5.959 3.493a2.627 2.627 0 003.44-1.42 2.63 2.63 0 00-1.435-3.44c-1.326-.546-2.87.104-3.424 1.445a2.62 2.62 0 001.42 3.415m-1.747 6.626c1.354.56 2.89-.08 3.442-1.42a2.631 2.631 0 00-1.435-3.44c-1.325-.546-2.87.104-3.423 1.445a2.62 2.62 0 001.417 3.416m14.355-8.022a2.63 2.63 0 102.009-4.861c-1.33-.545-2.872.106-3.424 1.447-.55 1.334.087 2.872 1.415 3.415m24.105-2.1a2.63 2.63 0 01-3.443-1.42 2.633 2.633 0 011.435-3.44c1.33-.547 2.87.105 3.424 1.445a2.616 2.616 0 01-1.415 3.416m5.96 3.493a2.626 2.626 0 01-3.44-1.42 2.631 2.631 0 011.432-3.44c1.33-.546 2.87.104 3.425 1.445a2.62 2.62 0 01-1.417 3.415m1.744 6.626a2.628 2.628 0 11-2.007-4.86c1.328-.546 2.87.104 3.423 1.445a2.615 2.615 0 01-1.415 3.416m-14.358-8.022a2.63 2.63 0 11-2.009-4.861c1.33-.545 2.873.106 3.424 1.447.55 1.334-.086 2.872-1.415 3.415m-7.337-6.796l.007-.006 3.328 1.747v-4.903l-3.32 1.052-.013-.01a1.69 1.69 0 00-.322-.327l-.01-.01 1.34-4.21h-4.804l1.34 4.21-.01.01a1.72 1.72 0 00-.323.326l-.01.01-3.323-1.053v4.904l3.327-1.746.01.007c.1.13.214.245.343.342l-1.91 5.766c-.003.007-.004.015-.008.02l-.002.007a3.103 3.103 0 002.514 3.98l.065.01c.127.016.258.028.39.028s.263-.012.39-.028l.066-.01a3.103 3.103 0 002.513-3.98v-.006c0-.008-.005-.015-.007-.022l-1.912-5.766c.13-.098.247-.212.346-.34m-1.399 28.213c6.318 0 12.298.427 17.627 1.19 1.512-6.36 3.352-10.004 5.253-12.6l-3.58-1.272c.357 1.817.414 2.662.016 3.83-.59-.576-1.15-1.637-1.59-3.26l-1.73 5.776c1.054-.727 1.867-1.197 2.798-1.22-1.65 3.556-3.713 4.474-5.05 4.226-1.63-.3-2.38-1.754-2.128-2.988.376-1.75 2.17-2.205 3.008-.17 1.604-3.27-1.115-4.29-2.867-3.32 2.69-2.683 2.997-5.066.827-7.95-3.022 2.31-3.058 4.6-1.697 7.82-1.766-2.02-4.513-.937-3.52 2.328 1.273-1.97 2.958-.732 2.693 1.14-.224 1.633-2.377 2.95-5.06 2.717-3.843-.35-4.07-3-4.167-5.197.943-.175 2.646.7 4.096 2.74l.535-6.128c-1.578 1.645-3.013 1.957-4.605 2.01.53-1.656 2.967-4.368 2.967-4.368h-7.645s2.435 2.71 2.967 4.367c-1.593-.052-3.027-.364-4.604-2.01l.533 6.128c1.452-2.04 3.15-2.914 4.097-2.74-.096 2.197-.324 4.848-4.168 5.198-2.683.232-4.836-1.083-5.06-2.716-.265-1.873 1.42-3.11 2.692-1.14.993-3.266-1.755-4.35-3.52-2.33 1.36-3.22 1.324-5.51-1.697-7.818-2.17 2.882-1.863 5.266.825 7.947-1.75-.968-4.47.05-2.866 3.32.837-2.033 2.633-1.578 3.008.17.252 1.235-.497 2.69-2.13 2.99-1.335.247-3.396-.67-5.048-4.227.93.023 1.744.493 2.8 1.22l-1.734-5.776c-.438 1.622-.996 2.683-1.586 3.26-.4-1.17-.342-2.014.014-3.83l-3.578 1.272c1.9 2.595 3.74 6.24 5.253 12.596 5.326-.76 11.302-1.187 17.62-1.187" fill="#FFF"/><path fill="#DADADA" d="M1109.996 640V241.45H1964V640h4V174.1h-862.004V640"/><path fill="#FFF" stroke="#A7A7A8" stroke-width=".711" stroke-miterlimit="10" d="M1191.377 177.658h758.892v58h-758.893z"/><path d="M1246.234 192.58h3.28v10.32c1.36-1.84 3.4-2.68 5.84-2.68 4.438 0 6.678 3.158 6.678 6.798v13.558h-3.28v-12.518c0-3.52-1.8-4.84-4.118-4.84-2.52 0-5.12 1.8-5.12 5.52v11.838h-3.28V192.58zm27.2 23.037c0 1.32.24 2.44 2.56 2.44.6 0 1.88-.12 2.48-.24l.36 2.88s-1.92.28-3.56.28c-3.16 0-5.12-1.24-5.12-4.64v-12.84h-3.76v-2.88h3.76V194.1l3.28-1.16v7.678h5.56v2.88h-5.56v12.12zm15.16 0c0 1.32.24 2.44 2.56 2.44.6 0 1.88-.12 2.48-.24l.36 2.88s-1.92.28-3.56.28c-3.16 0-5.12-1.24-5.12-4.64v-12.84h-3.76v-2.88h3.76V194.1l3.28-1.16v7.678h5.56v2.88h-5.56v12.12zm13.281-14.997v2.28c1.16-1.64 3.28-2.68 5.84-2.68 5.158 0 8.478 4.358 8.478 10.397s-3.32 10.358-8.48 10.358c-2.56 0-4.678-1.04-5.838-2.68v8.358h-3.28v-26.036h3.28zm10.918 9.878c0-4.16-2-7.36-5.68-7.36-3.478 0-5.278 2.52-5.278 5.84v3.24c0 3.32 1.8 5.84 5.28 5.84 3.678 0 5.678-3.2 5.678-7.36v-.2zm6.923 7.599l2-2.32c1.28 1.08 3.358 2.44 6.038 2.44 2.28 0 4-1.04 4-3 0-2.16-2.16-2.64-4.88-3.36-2.84-.76-6.198-1.72-6.198-5.838 0-3.36 3.08-5.8 7.278-5.8 2.64 0 5.56 1.12 6.92 2.48l-1.92 2.198a7.315 7.315 0 00-4.92-1.92c-2.64 0-3.96 1.16-3.96 2.96 0 1.44 1.12 2.16 2.88 2.64 1.04.28 2.24.64 3.28.96 2.68.84 4.88 2.24 4.88 5.44 0 4.118-3.64 5.998-7.52 5.998-2.72 0-5.68-.92-7.878-2.88zm22.759-17.477a2.68 2.68 0 110 5.36 2.68 2.68 0 010-5.36zm0 14.997a2.68 2.68 0 110 5.36 2.68 2.68 0 010-5.36zm16.837-23.037h3.36l-9.8 27.996h-3.398l9.838-27.995zm11.958 0h3.36l-9.798 27.996h-3.4l9.84-27.995zm22.64 27.996h-3.28v-12.558c0-3.56-1.798-4.8-3.997-4.8-2.2 0-4.4 1.68-4.4 5.56v11.798h-3.28V200.62h3.28v2.28c1.32-1.84 3.12-2.68 5.24-2.68 1.8 0 4.358.92 5.398 3.318 1.48-2.44 3.84-3.32 6.08-3.32 4.32 0 6.72 3.16 6.72 6.68v13.678h-3.28v-12.558c0-3.56-1.92-4.8-4.08-4.8-2.2 0-4.4 1.68-4.4 5.56v11.798zm15.644-19.956h3.72l4.918 16.477 4.68-16.478h3.68l-7.28 22.955c-.878 2.8-2.838 3.52-5.278 3.52-1.08 0-2.28-.12-3.56-.32l.48-2.88s1.36.28 2.64.28c1.44 0 2.2-.6 2.52-2l.2-.92-6.72-20.636zm21.039 6.758h8.398v3.12h-8.397v-3.12zm20.037 13.599c-3.958 0-6.958-2.32-6.958-6.04 0-3.12 2.12-5.198 5.32-5.64l7.038-.96v-1.278c0-3.04-1.96-3.96-4.44-3.96-2.238 0-4.198.72-5.758 1.56l-1.24-2.6c2.28-1.28 4.88-1.84 7.32-1.84 4.838 0 7.397 2.16 7.397 6.358v9.318c0 1.32.52 2.2 1.64 2.72l-1.84 2.36c-1.28-.32-2.24-1.28-2.68-2.4-1.16 1.36-3.12 2.4-5.8 2.4zm.042-9.28c-2.2.32-3.64 1.04-3.64 3.08 0 2.32 1.88 3.6 4.08 3.6 2.438 0 4.918-1.56 4.918-3.88v-3.6l-5.358.8zm18.278-11.077v2.28c1.16-1.64 3.28-2.68 5.84-2.68 5.16 0 8.48 4.358 8.48 10.397s-3.32 10.358-8.48 10.358c-2.56 0-4.68-1.04-5.84-2.68v8.358h-3.278v-26.036h3.28zm10.92 9.878c0-4.16-2-7.36-5.68-7.36-3.48 0-5.28 2.52-5.28 5.84v3.24c0 3.32 1.8 5.84 5.28 5.84 3.68 0 5.68-3.2 5.68-7.36v-.2zm11.92-9.878v2.28c1.16-1.64 3.28-2.68 5.84-2.68 5.16 0 8.48 4.358 8.48 10.397s-3.32 10.358-8.48 10.358c-2.56 0-4.68-1.04-5.84-2.68v8.358h-3.278v-26.036h3.28zm10.92 9.878c0-4.16-2-7.36-5.68-7.36-3.48 0-5.28 2.52-5.28 5.84v3.24c0 3.32 1.8 5.84 5.28 5.84 3.68 0 5.68-3.2 5.68-7.36v-.2zm10.88 5.119a2.68 2.68 0 11-.004 5.36 2.68 2.68 0 01.006-5.36zm10.84-4.919c0 4 1.96 7.398 5.8 7.398 2.52 0 4.16-1.48 5.16-3.36l2.718 1.56c-1.36 2.84-4.28 4.68-7.878 4.68-5.52 0-9.198-4.318-9.198-10.357 0-6.08 3.68-10.4 9.198-10.4 3.6 0 6.52 1.84 7.878 4.68l-2.72 1.56c-1-1.88-2.64-3.36-5.158-3.36-3.84 0-5.8 3.4-5.8 7.4v.198zm18.52-18.118h3.28v23.517c0 1.32.4 2 1.92 2 .84 0 1.52-.08 2.04-.12l.32 2.76s-1.882.24-3.32.24c-2.36 0-4.24-1.04-4.24-3.92V192.58zm28.277 18.038c0 6-3.68 10.358-9.197 10.358-5.52 0-9.2-4.36-9.2-10.358 0-6.08 3.68-10.398 9.2-10.398 5.518 0 9.197 4.32 9.197 10.398zm-3.4.12v-.24c0-4-2-7.4-5.798-7.4-3.8 0-5.8 3.4-5.8 7.4v.24c0 3.92 2 7.358 5.8 7.358 3.798 0 5.798-3.44 5.798-7.358zm24.24 9.838h-3.28v-2.28c-1.36 1.84-3.398 2.68-5.838 2.68-4.44 0-6.68-3.16-6.68-6.798v-13.56h3.278v12.52c0 3.52 1.8 4.84 4.12 4.84 2.72 0 5.12-1.8 5.12-5.52v-11.84h3.278v19.958zm19.56-2.279c-1.16 1.64-3.28 2.68-5.84 2.68-5.158 0-8.478-4.32-8.478-10.358s3.318-10.4 8.478-10.4c2.56 0 4.68 1.04 5.84 2.68v-10.317h3.278v27.995h-3.28v-2.28zm-10.918-7.6c0 4.16 2 7.36 5.68 7.36 3.478 0 5.278-2.52 5.278-5.84v-3.24c0-3.32-1.8-5.84-5.28-5.84-3.68 0-5.68 3.2-5.68 7.36v.2zm26.081 10.28c-3.96 0-6.96-2.32-6.96-6.04 0-3.12 2.12-5.198 5.318-5.64l7.04-.96v-1.278c0-3.04-1.96-3.96-4.44-3.96-2.24 0-4.2.72-5.76 1.56l-1.238-2.6c2.28-1.28 4.88-1.84 7.318-1.84 4.84 0 7.398 2.16 7.398 6.358v9.318c0 1.32.52 2.2 1.64 2.72l-1.84 2.36c-1.28-.32-2.24-1.28-2.68-2.4-1.158 1.36-3.118 2.4-5.797 2.4zm.038-9.28c-2.2.32-3.64 1.04-3.64 3.08 0 2.32 1.88 3.6 4.08 3.6 2.44 0 4.92-1.56 4.92-3.88v-3.6l-5.36.8zm18.28-11.077v2.28c1.16-1.64 3.28-2.68 5.84-2.68 5.158 0 8.478 4.358 8.478 10.397s-3.32 10.358-8.48 10.358c-2.56 0-4.68-1.04-5.838-2.68v8.358h-3.28v-26.036h3.28zm10.918 9.878c0-4.16-2-7.36-5.68-7.36-3.478 0-5.278 2.52-5.278 5.84v3.24c0 3.32 1.8 5.84 5.28 5.84 3.68 0 5.678-3.2 5.678-7.36v-.2zm11.922-9.878v2.28c1.16-1.64 3.28-2.68 5.84-2.68 5.158 0 8.478 4.358 8.478 10.397s-3.32 10.358-8.48 10.358c-2.56 0-4.68-1.04-5.838-2.68v8.358h-3.28v-26.036h3.28zm10.918 9.878c0-4.16-2-7.36-5.68-7.36-3.478 0-5.278 2.52-5.278 5.84v3.24c0 3.32 1.8 5.84 5.28 5.84 3.68 0 5.678-3.2 5.678-7.36v-.2zm6.924 7.599l2-2.32c1.278 1.08 3.358 2.44 6.038 2.44 2.28 0 3.998-1.04 3.998-3 0-2.16-2.16-2.64-4.88-3.36-2.84-.76-6.198-1.72-6.198-5.838 0-3.36 3.08-5.8 7.28-5.8 2.64 0 5.558 1.12 6.918 2.48l-1.92 2.198a7.315 7.315 0 00-4.92-1.92c-2.64 0-3.958 1.16-3.958 2.96 0 1.44 1.12 2.16 2.88 2.64 1.04.28 2.24.64 3.278.96 2.68.84 4.88 2.24 4.88 5.44 0 4.118-3.64 5.998-7.52 5.998-2.72 0-5.678-.92-7.877-2.88zm22.757-2.48a2.68 2.68 0 110 5.36 2.68 2.68 0 010-5.36zm21.799 2.68c-1.16 1.64-3.28 2.68-5.84 2.68-5.16 0-8.48-4.32-8.48-10.358s3.32-10.4 8.48-10.4c2.56 0 4.68 1.04 5.84 2.68v-10.317h3.28v27.995h-3.28v-2.28zm-10.92-7.6c0 4.16 2 7.36 5.68 7.36 3.48 0 5.28-2.52 5.28-5.84v-3.24c0-3.32-1.8-5.84-5.28-5.84-3.68 0-5.68 3.2-5.68 7.36v.2zm22.281-18.117c1.32 0 2.398 1.12 2.398 2.44 0 1.36-1.078 2.44-2.398 2.44-1.36 0-2.44-1.08-2.44-2.44a2.45 2.45 0 012.44-2.44zm1.6 27.996h-3.28V200.62h3.28v19.956zm13.359-20.356c2.16 0 4.28.8 5.64 2.68v-2.28h3.278v20.117c0 4.96-4.36 6.398-8.56 6.398-2.358 0-5.157-.48-7.397-1.6l1.12-2.72c1.56.72 4 1.4 6.358 1.4 3.36 0 5.2-1.24 5.2-4.32v-3.8c-1.36 1.88-3.48 2.68-5.64 2.68-4.96 0-8.078-4.038-8.078-9.277s3.12-9.278 8.08-9.278zm5.72 9.198c0-3.56-1.52-6.28-5.12-6.28-3.64 0-5.28 2.8-5.28 6.28v.16c0 3.48 1.642 6.28 5.28 6.28 3.6 0 5.12-2.72 5.12-6.28v-.16zm11.28-16.838c1.32 0 2.398 1.12 2.398 2.44 0 1.36-1.078 2.44-2.398 2.44-1.36 0-2.44-1.08-2.44-2.44a2.45 2.45 0 012.44-2.44zm1.6 27.996h-3.28V200.62h3.28v19.956zm11.558-4.959c0 1.32.24 2.44 2.56 2.44.6 0 1.88-.12 2.48-.24l.36 2.88s-1.92.28-3.56.28c-3.158 0-5.12-1.24-5.12-4.64v-12.84h-3.76v-2.88h3.76V194.1l3.28-1.16v7.678h5.56v2.88h-5.56v12.12zm15.481 5.36c-3.96 0-6.96-2.32-6.96-6.04 0-3.12 2.12-5.198 5.32-5.64l7.038-.96v-1.278c0-3.04-1.96-3.96-4.438-3.96-2.24 0-4.2.72-5.76 1.56l-1.24-2.6c2.28-1.28 4.88-1.84 7.318-1.84 4.84 0 7.4 2.16 7.4 6.358v9.318c0 1.32.52 2.2 1.64 2.72l-1.84 2.36c-1.28-.32-2.24-1.28-2.68-2.4-1.16 1.36-3.12 2.4-5.798 2.4zm.04-9.28c-2.2.32-3.64 1.04-3.64 3.08 0 2.32 1.88 3.6 4.08 3.6 2.44 0 4.918-1.56 4.918-3.88v-3.6l-5.357.8zm14.88-19.117h3.28v23.517c0 1.32.4 2 1.92 2 .84 0 1.52-.08 2.04-.12l.32 2.76s-1.88.24-3.32.24c-2.36 0-4.24-1.04-4.24-3.92V192.58z"/><path d="M1145.323 189.658l-19.68 17 19.68 17m-15.681-17.001h39.062" fill="none" stroke="#A7A7A8" stroke-width="5" stroke-miterlimit="10"/><path fill="#00923A" d="M1225.633 217.82c0 1.486-1.215 2.7-2.7 2.7h-13.207a2.707 2.707 0 01-2.7-2.7v-9.75c0-1.484 1.215-2.7 2.7-2.7h13.207c1.485 0 2.7 1.216 2.7 2.7v9.75z"/><path fill="none" stroke="#00923A" stroke-width="2.7" stroke-miterlimit="10" d="M1221.88 207.205c0 1.98-1.62 3.6-3.6 3.6h-3.9a3.61 3.61 0 01-3.6-3.6v-6.716c0-1.98 1.62-3.6 3.6-3.6h3.9c1.978 0 3.6 1.62 3.6 3.6v6.715z"/><path fill="#DADADA" d="M1105.996 636H1968v4h-862.004z"/></svg>