<svg version="1.1" id="Layer_1" xmlns="http://www.w3.org/2000/svg" x="0" y="0" viewBox="0 0 543 368.5" xml:space="preserve"><style>.st0{fill:#bfc1c3}.st2,.st3{fill:#fff}.st3{stroke:#a7a7a8;stroke-miterlimit:10}.st5{fill:#d2d2d2}.st13,.st7{fill:none}.st13{stroke:#a7a7a8;stroke-width:4;stroke-miterlimit:10}</style><path class="st0" d="M483.3 230.9c0 2.5-2.6 4.7-5.7 4.7H6.6c-3.1 0-5.7-2.1-5.7-4.7V7c0-2.5 2.6-4.7 5.7-4.7h471c3.1 0 5.7 2.1 5.7 4.7v223.9z"/><path fill="#313131" d="M6.2 35.3h472.7v194.9H6.2z"/><circle class="st2" cx="15.4" cy="18.3" r="8.3"/><circle class="st2" cx="39.8" cy="18.3" r="8.3"/><circle class="st2" cx="64.2" cy="18.3" r="8.3"/><path class="st0" d="M542 362.4c0 3.1-2.6 5.7-5.7 5.7h-471c-3.1 0-5.7-2.6-5.7-5.7V89.7c0-3.1 2.6-5.7 5.7-5.7h471c3.1 0 5.7 2.6 5.7 5.7v272.7z"/><path class="st3" d="M115 114.3h421.9v48.4H115zM64.2 168.3h472.7V362H64.2z"/><path fill="#009347" stroke="#fff" stroke-miterlimit="10" d="M77.9 299.4h202.8v49.1H77.9z"/><path class="st5" d="M78.9 270.7h285.3v15.2H78.9zM78.9 247.2h361.3v15.2H78.9zM78.9 223.7H395v15.2H78.9z"/><path fill="#0a0a0a" d="M64.4 168.7h472v38.9h-472z"/><path class="st7" d="M77.2 127.8h432.5v29.8H77.2z"/><text transform="translate(125.72 147.438)" font-size="28.028" font-family="GDSTransportWebsite">https://my-app.cloudapps.digital</text><circle class="st2" cx="74.1" cy="100" r="8.3"/><circle class="st2" cx="98.5" cy="100" r="8.3"/><circle class="st2" cx="122.9" cy="100" r="8.3"/><path class="st2" d="M85.2 183.8c.8.3 1.7-.1 2-.8.3-.8-.1-1.7-.8-2-.8-.3-1.7.1-2 .8-.4.8 0 1.7.8 2m-3.5 2c.8.3 1.7-.1 2-.8.3-.8-.1-1.7-.8-2-.8-.3-1.7.1-2 .8-.3.8.1 1.8.8 2m-1 3.9c.8.3 1.7-.1 2-.8.3-.8-.1-1.7-.8-2-.8-.3-1.7.1-2 .8-.3.8.1 1.7.8 2M89 185c.8.3 1.7-.1 2-.8.3-.8-.1-1.7-.8-2-.8-.3-1.7.1-2 .8-.3.8.1 1.7.8 2m13.9-1.2c-.8.3-1.7-.1-2-.8-.3-.8.1-1.7.8-2 .8-.3 1.7.1 2 .8.4.8 0 1.7-.8 2m3.5 2c-.8.3-1.7-.1-2-.8-.3-.8 0-1.7.8-2s1.7.1 2 .8c.4.8 0 1.8-.8 2m1 3.9c-.8.3-1.7-.1-2-.8-.3-.8.1-1.7.8-2 .8-.3 1.7.1 2 .8.3.8 0 1.7-.8 2m-8.3-4.7c-.8.3-1.7-.1-2-.8-.3-.8.1-1.7.8-2 .8-.3 1.7.1 2 .8.4.8 0 1.7-.8 2m-4.2-3.9l1.9 1v-2.8l-1.9.6-.2-.2.8-2.4h-2.8l.8 2.4-.2.2-2-.6v2.8l1.9-1 .2.2-1.1 3.4c-.1.2-.1.3-.1.5 0 .9.7 1.6 1.5 1.8h.6c.9-.1 1.6-.9 1.6-1.8 0-.2 0-.3-.1-.5l-1.1-3.4.2-.2m-.8 16.3c3.6 0 7.1.2 10.2.7.9-3.7 2-5.8 3.1-7.3l-2.1-.7c.2 1 .2 1.6 0 2.2-.3-.3-.6-.9-.9-1.9l-1 3.4c.6-.4 1.1-.7 1.6-.7-1 2.1-2.1 2.6-2.9 2.4-.9-.2-1.4-1-1.2-1.7.2-1 1.3-1.3 1.7-.1.9-1.9-.6-2.5-1.7-1.9 1.6-1.6 1.7-2.9.5-4.6-1.7 1.3-1.8 2.7-1 4.5-1-1.2-2.6-.5-2 1.3.8-1.2 1.7-.4 1.6.6-.1.9-1.4 1.7-2.9 1.6-2.2-.2-2.4-1.7-2.4-3 .5-.1 1.5.4 2.4 1.6l.3-3.5c-.9.9-1.7 1.2-2.7 1.2.3-1 1.7-2.5 1.7-2.5h-4.3s1.4 1.6 1.7 2.5c-.9-.1-1.7-.2-2.7-1.2l.3 3.5c.9-1.2 1.8-1.7 2.4-1.6-.1 1.3-.2 2.8-2.4 3-1.6.1-2.8-.6-2.9-1.6-.2-1.1.8-1.8 1.6-.6.6-1.9-1-2.5-2-1.3.8-1.8.8-3.2-1-4.5-1.3 1.7-1.1 3.1.5 4.6-1-.6-2.6.1-1.7 1.9.5-1.2 1.5-.9 1.7.1.2.7-.3 1.6-1.2 1.7-.8.1-2-.4-2.9-2.4.5 0 1 .3 1.6.7l-1-3.4c-.2.9-.6 1.6-.9 1.9-.2-.7-.2-1.2 0-2.2l-2.1.8c1.1 1.5 2.1 3.6 3.1 7.3 2.8-.5 6.2-.8 9.9-.8"/><path class="st7" d="M15.3 45.6h406v90h-406z"/><text transform="translate(15.334 66.848)" font-size="32" font-family="Inconsolata" fill="#c2f297">$ cf push my-app</text><path class="st13" d="M70.7 137.9l14.6-14.7M70.7 135l14.6 14.6M74.7 136.5l30.7.2"/></svg>