<svg xmlns="http://www.w3.org/2000/svg" width="960" height="640"><path fill="none" stroke="#005EA5" stroke-width="7" stroke-miterlimit="10" d="M479.132 500.017V291.604M479.132 298.551V90.139M597.232 302.024V93.612M364.505 289.867V81.455"/><path fill="#FFF" stroke="#005EA5" stroke-width="4" stroke-miterlimit="10" d="M15.24 262.079h931.604v104.207H15.24z"/><path fill="#005EA5" d="M790.014 98.822L689.976-1.216v49.845H268.288V-1.216L168.25 98.822 268.288 198.86v-48.977h421.688v48.977z"/><path fill="#D1EBFB" d="M874.768 506.963c-6.946 0-13.547 1.043-19.973 2.779-13.721-38.903-52.798-66.865-98.996-66.865-26.398 0-50.366 9.204-68.775 24.314-18.41-15.11-42.378-24.314-68.776-24.314-26.399 0-50.366 9.204-68.776 24.314-18.41-15.11-42.377-24.314-68.776-24.314h-2.084c-26.398 0-50.366 9.204-68.776 24.314-18.41-15.11-42.377-24.314-68.776-24.314s-50.366 9.204-68.776 24.314c-18.41-15.11-42.377-24.314-68.776-24.314-46.198 0-85.275 28.136-98.996 66.865-6.252-1.736-13.026-2.779-19.973-2.779-37.861 0-69.123 29.005-69.123 64.956s31.262 65.129 69.818 65.129H875.116c38.557 0 69.818-29.178 69.818-65.129-.348-35.951-31.61-64.956-70.166-64.956z"/><path fill="#BFC1C3" stroke="#848484" stroke-width="2" stroke-miterlimit="10" d="M-1.606-194.692H65.26v97.954H-1.606z"/><path opacity=".5" fill="none" stroke="#595959" stroke-width="4" stroke-miterlimit="10" d="M3.256-159.436h55.403"/><path opacity=".5" fill="none" stroke="#FFF" stroke-width="2" stroke-miterlimit="10" d="M3.43-161.693h55.403"/><path opacity=".5" fill="none" stroke="#595959" stroke-width="4" stroke-miterlimit="10" d="M3.256-150.057h55.403"/><path opacity=".5" fill="none" stroke="#FFF" stroke-width="2" stroke-miterlimit="10" d="M3.43-152.315h55.403"/><path opacity=".5" fill="none" stroke="#595959" stroke-width="4" stroke-miterlimit="10" d="M3.256-140.679h55.403"/><path opacity=".5" fill="none" stroke="#FFF" stroke-width="2" stroke-miterlimit="10" d="M3.43-142.936h55.403"/><path opacity=".5" fill="none" stroke="#595959" stroke-width="4" stroke-miterlimit="10" d="M3.256-131.3h55.403"/><path opacity=".5" fill="none" stroke="#FFF" stroke-width="2" stroke-miterlimit="10" d="M3.43-133.558h55.403"/><path opacity=".5" fill="none" stroke="#595959" stroke-width="4" stroke-miterlimit="10" d="M3.256-121.748h55.403"/><path opacity=".5" fill="none" stroke="#FFF" stroke-width="2" stroke-miterlimit="10" d="M3.43-124.005h55.403"/><path opacity=".5" fill="none" stroke="#595959" stroke-width="4" stroke-miterlimit="10" d="M3.256-112.369h55.403"/><path opacity=".5" fill="none" stroke="#FFF" stroke-width="2" stroke-miterlimit="10" d="M3.43-114.627h55.403"/><path opacity=".5" fill="none" stroke="#595959" stroke-width="4" stroke-miterlimit="10" d="M3.256-102.99h55.403"/><path opacity=".5" fill="none" stroke="#FFF" stroke-width="2" stroke-miterlimit="10" d="M3.43-105.248h55.403"/><circle fill="#6A0" cx="7.946" cy="-177.845" r="4.168"/><circle opacity=".5" fill="#C8F47A" cx="8.467" cy="-178.54" r="2.258"/><circle fill="#A82B00" cx="19.061" cy="-177.845" r="4.168"/><circle opacity=".5" fill="#F28B7C" cx="19.582" cy="-178.54" r="2.258"/><g><path fill="#BFC1C3" stroke="#848484" stroke-width="2" stroke-miterlimit="10" d="M105.899-194.692h66.866v97.954h-66.866z"/><path opacity=".5" fill="none" stroke="#595959" stroke-width="4" stroke-miterlimit="10" d="M110.763-159.436h55.403"/><path opacity=".5" fill="none" stroke="#FFF" stroke-width="2" stroke-miterlimit="10" d="M110.936-161.693h55.403"/><path opacity=".5" fill="none" stroke="#595959" stroke-width="4" stroke-miterlimit="10" d="M110.763-150.057h55.403"/><path opacity=".5" fill="none" stroke="#FFF" stroke-width="2" stroke-miterlimit="10" d="M110.936-152.315h55.403"/><path opacity=".5" fill="none" stroke="#595959" stroke-width="4" stroke-miterlimit="10" d="M110.763-140.679h55.403"/><path opacity=".5" fill="none" stroke="#FFF" stroke-width="2" stroke-miterlimit="10" d="M110.936-142.936h55.403"/><path opacity=".5" fill="none" stroke="#595959" stroke-width="4" stroke-miterlimit="10" d="M110.763-131.3h55.403"/><path opacity=".5" fill="none" stroke="#FFF" stroke-width="2" stroke-miterlimit="10" d="M110.936-133.558h55.403"/><path opacity=".5" fill="none" stroke="#595959" stroke-width="4" stroke-miterlimit="10" d="M110.763-121.748h55.403"/><path opacity=".5" fill="none" stroke="#FFF" stroke-width="2" stroke-miterlimit="10" d="M110.936-124.005h55.403"/><path opacity=".5" fill="none" stroke="#595959" stroke-width="4" stroke-miterlimit="10" d="M110.763-112.369h55.403"/><path opacity=".5" fill="none" stroke="#FFF" stroke-width="2" stroke-miterlimit="10" d="M110.936-114.627h55.403"/><path opacity=".5" fill="none" stroke="#595959" stroke-width="4" stroke-miterlimit="10" d="M110.763-102.99h55.403"/><path opacity=".5" fill="none" stroke="#FFF" stroke-width="2" stroke-miterlimit="10" d="M110.936-105.248h55.403"/><circle fill="#6A0" cx="115.278" cy="-177.845" r="4.168"/><circle opacity=".5" fill="#C8F47A" cx="115.973" cy="-178.54" r="2.258"/><circle fill="#A82B00" cx="126.567" cy="-177.845" r="4.168"/><circle opacity=".5" fill="#F28B7C" cx="127.088" cy="-178.54" r="2.258"/></g><g><path fill="#BFC1C3" stroke="#848484" stroke-width="2" stroke-miterlimit="10" d="M212.364-194.692h66.866v97.954h-66.866z"/><path opacity=".5" fill="none" stroke="#595959" stroke-width="4" stroke-miterlimit="10" d="M217.4-159.436h55.229"/><path opacity=".5" fill="none" stroke="#FFF" stroke-width="2" stroke-miterlimit="10" d="M217.574-161.693h55.229"/><path opacity=".5" fill="none" stroke="#595959" stroke-width="4" stroke-miterlimit="10" d="M217.4-150.057h55.229"/><path opacity=".5" fill="none" stroke="#FFF" stroke-width="2" stroke-miterlimit="10" d="M217.574-152.315h55.229"/><path opacity=".5" fill="none" stroke="#595959" stroke-width="4" stroke-miterlimit="10" d="M217.4-140.679h55.229"/><path opacity=".5" fill="none" stroke="#FFF" stroke-width="2" stroke-miterlimit="10" d="M217.574-142.936h55.229"/><path opacity=".5" fill="none" stroke="#595959" stroke-width="4" stroke-miterlimit="10" d="M217.4-131.3h55.229"/><path opacity=".5" fill="none" stroke="#FFF" stroke-width="2" stroke-miterlimit="10" d="M217.574-133.558h55.229"/><path opacity=".5" fill="none" stroke="#595959" stroke-width="4" stroke-miterlimit="10" d="M217.4-121.748h55.229"/><path opacity=".5" fill="none" stroke="#FFF" stroke-width="2" stroke-miterlimit="10" d="M217.574-124.005h55.229"/><path opacity=".5" fill="none" stroke="#595959" stroke-width="4" stroke-miterlimit="10" d="M217.4-112.369h55.229"/><path opacity=".5" fill="none" stroke="#FFF" stroke-width="2" stroke-miterlimit="10" d="M217.574-114.627h55.229"/><path opacity=".5" fill="none" stroke="#595959" stroke-width="4" stroke-miterlimit="10" d="M217.4-102.99h55.229"/><path opacity=".5" fill="none" stroke="#FFF" stroke-width="2" stroke-miterlimit="10" d="M217.574-105.248h55.229"/><circle fill="#6A0" cx="221.916" cy="-177.845" r="4.168"/><circle opacity=".5" fill="#C8F47A" cx="222.437" cy="-178.54" r="2.258"/><circle fill="#A82B00" cx="233.031" cy="-177.845" r="4.168"/><circle opacity=".5" fill="#F28B7C" cx="233.552" cy="-178.54" r="2.258"/></g><g fill="#005EA5"><path d="M391.251 293.862c2.258-.348 5.037-.695 8.684-.695 4.516 0 7.815 1.042 9.899 2.953 1.911 1.737 3.126 4.168 3.126 7.294s-.868 5.731-2.779 7.468c-2.431 2.605-6.252 3.821-10.768 3.821-1.39 0-2.605 0-3.647-.348v14.068h-4.516v-34.561h.001zm4.516 17.02c1.042.348 2.258.348 3.821.348 5.384 0 8.857-2.605 8.857-7.469 0-4.688-3.3-6.947-8.336-6.947-1.91 0-3.474.174-4.342.348v13.72zM418.519 291.604h4.516v36.993h-4.516v-36.993zM444.743 328.597l-.347-3.126h-.174c-1.39 1.91-4.168 3.821-7.642 3.821-5.037 0-7.643-3.647-7.643-7.295 0-6.078 5.385-9.378 15.11-9.378v-.521c0-2.084-.521-5.905-5.731-5.905-2.258 0-4.863.695-6.6 1.911l-1.042-2.953c2.084-1.389 5.036-2.258 8.336-2.258 7.643 0 9.553 5.211 9.553 10.247v9.379c0 2.258.174 4.342.348 6.078h-4.168zm-.694-12.852c-5.037-.174-10.595.694-10.595 5.731 0 2.952 1.911 4.342 4.343 4.342 3.3 0 5.384-2.084 6.078-4.168.174-.521.348-1.043.348-1.39v-4.516h-.174zM461.243 296.12v7.294h6.6v3.474h-6.6v13.547c0 3.126.868 4.862 3.474 4.862 1.216 0 2.084-.174 2.604-.347l.174 3.474c-.868.347-2.258.694-3.994.694-2.084 0-3.821-.694-4.863-1.91-1.39-1.39-1.736-3.647-1.736-6.601v-13.72h-3.821v-3.474h3.821v-6.079l4.341-1.214zM473.4 328.597v-21.709h-3.474v-3.474h3.474v-1.216c0-3.474.694-6.773 2.952-8.857 1.737-1.737 3.995-2.258 6.079-2.258 1.562 0 2.952.347 3.82.694l-.694 3.474c-.694-.347-1.563-.521-2.952-.521-3.821 0-4.863 3.473-4.863 7.294v1.39h6.079v3.474h-6.079v21.709H473.4zM510.394 315.745c0 9.378-6.426 13.373-12.505 13.373-6.773 0-12.157-5.037-12.157-13.026 0-8.51 5.558-13.373 12.505-13.373 7.119 0 12.157 5.385 12.157 13.026zm-20.147.347c0 5.559 3.126 9.727 7.642 9.727 4.342 0 7.642-4.168 7.642-9.727 0-4.342-2.084-9.726-7.468-9.726s-7.816 4.863-7.816 9.726zM516.125 311.229c0-2.953 0-5.558-.174-7.815h3.994l.174 5.036h.174c1.216-3.474 3.821-5.558 6.947-5.558.521 0 .868 0 1.39.174v4.342c-.521-.174-.869-.174-1.563-.174-3.3 0-5.558 2.432-6.079 5.905-.173.694-.173 1.39-.173 2.084v13.373h-4.516v-17.367h-.174zM533.318 310.188c0-2.605 0-4.689-.173-6.773h3.994l.174 3.994h.174c1.39-2.432 3.82-4.689 7.989-4.689 3.474 0 6.078 2.085 7.12 5.037h.174c.868-1.39 1.737-2.432 2.779-3.3 1.562-1.216 3.126-1.737 5.558-1.737 3.3 0 8.336 2.258 8.336 10.942v14.763h-4.516v-14.068c0-4.863-1.736-7.815-5.558-7.815-2.604 0-4.688 1.91-5.384 4.168-.174.695-.348 1.39-.348 2.258v15.631h-4.516V313.49c0-3.995-1.736-6.947-5.21-6.947-2.952 0-4.863 2.258-5.731 4.516-.348.694-.348 1.39-.348 2.258V328.6h-4.516v-18.412z"/></g><g fill="#FFF"><path d="M361.378 113.237V98.301l-11.115-20.146h5.21l5.037 9.726c1.389 2.605 2.431 4.863 3.474 7.294h.173c1.042-2.258 2.258-4.516 3.474-7.294l5.037-9.726h5.21l-11.81 20.146v14.936h-4.69zM400.456 100.385c0 9.378-6.426 13.373-12.505 13.373-6.773 0-12.157-5.037-12.157-13.025 0-8.51 5.558-13.374 12.504-13.374 7.295 0 12.158 5.385 12.158 13.026zm-19.973.348c0 5.558 3.126 9.726 7.642 9.726 4.342 0 7.642-4.168 7.642-9.726 0-4.342-2.084-9.726-7.468-9.726-5.558-.174-7.816 4.863-7.816 9.726zM427.376 106.291c0 2.605 0 4.863.174 6.947h-3.995l-.174-4.168h-.173c-1.216 2.084-3.821 4.689-8.337 4.689-3.995 0-8.684-2.258-8.684-11.115V87.881h4.516v13.894c0 4.863 1.39 7.989 5.558 7.989 3.126 0 5.21-2.084 6.078-4.168.174-.695.348-1.563.348-2.432V87.707h4.516v18.583h.173zM435.018 95.87c0-2.953 0-5.558-.174-7.815h3.995l.173 5.037h.174c1.216-3.474 3.821-5.558 6.947-5.558.521 0 .868 0 1.216.174v4.342c-.521-.174-.868-.174-1.563-.174-3.3 0-5.558 2.432-6.078 5.905-.174.695-.174 1.389-.174 2.084v13.373h-4.516V95.87zM462.459 108.548c1.389.868 3.82 1.737 6.078 1.737 3.3 0 4.863-1.737 4.863-3.821 0-2.258-1.39-3.3-4.689-4.689-4.516-1.563-6.6-4.168-6.6-7.121 0-3.995 3.3-7.468 8.684-7.468 2.605 0 4.863.695 6.253 1.563l-1.216 3.3c-1.042-.695-2.779-1.39-5.211-1.39-2.778 0-4.168 1.563-4.168 3.474 0 2.084 1.563 2.953 4.863 4.342 4.342 1.737 6.6 3.821 6.6 7.642 0 4.342-3.474 7.468-9.379 7.468-2.778 0-5.384-.695-7.121-1.737l1.043-3.3zM486.252 101.427c.174 6.252 3.995 8.684 8.685 8.684 3.3 0 5.21-.521 6.946-1.39l.695 3.3c-1.563.695-4.342 1.563-8.337 1.563-7.815 0-12.331-5.037-12.331-12.679s4.516-13.547 11.811-13.547c8.162 0 10.42 7.294 10.42 11.81 0 .869-.173 1.737-.173 2.084h-17.716v.175zm13.373-3.3c0-2.953-1.215-7.468-6.426-7.468-4.689 0-6.6 4.342-6.947 7.468h13.373zM509.699 95.87c0-2.953 0-5.558-.174-7.815h3.994l.174 5.037h.174c1.216-3.474 3.82-5.558 6.947-5.558.521 0 .868 0 1.389.174v4.342c-.521-.174-.868-.174-1.562-.174-3.3 0-5.558 2.432-6.079 5.905-.174.695-.174 1.389-.174 2.084v13.373h-4.516V95.87h-.173zM529.846 88.054l4.862 14.242c.868 2.258 1.563 4.342 2.084 6.426h.174c.521-2.084 1.39-4.168 2.084-6.426l4.863-14.242h4.863l-9.899 25.183h-4.343l-9.552-25.183h4.864zM558.328 80.934c0 1.563-1.042 2.779-2.952 2.779-1.563 0-2.779-1.216-2.779-2.779s1.216-2.779 2.779-2.779c1.736-.174 2.952 1.216 2.952 2.779zm-5.21 32.303V88.054h4.516v25.183h-4.516zM583.338 112.195c-1.216.695-3.821 1.39-7.295 1.39-7.642 0-12.504-5.21-12.504-12.852 0-7.816 5.384-13.374 13.546-13.374 2.779 0 5.037.695 6.427 1.39l-1.042 3.474c-1.042-.695-2.779-1.216-5.385-1.216-5.73 0-8.857 4.342-8.857 9.552 0 5.905 3.821 9.378 8.685 9.378 2.604 0 4.342-.695 5.558-1.216l.867 3.474zM590.979 101.427c.174 6.252 3.995 8.684 8.684 8.684 3.3 0 5.211-.521 6.947-1.39l.868 3.3c-1.562.695-4.342 1.563-8.336 1.563-7.815 0-12.331-5.037-12.331-12.679s4.516-13.547 11.81-13.547c8.163 0 10.421 7.294 10.421 11.81 0 .869-.174 1.737-.174 2.084h-17.889v.175zm13.374-3.3c0-2.953-1.216-7.468-6.426-7.468-4.689 0-6.6 4.342-6.947 7.468h13.373z"/></g><g fill="#005EA5"><path d="M343.837 527.805h25.009v3.994H358.6v32.478h-4.516v-32.478h-10.247v-3.994zM373.883 527.805h4.342v13.373c.869-1.216 1.911-2.084 3.3-2.605 1.39-.521 2.779-.868 4.342-.868 1.389 0 2.779.174 3.821.694 1.042.521 1.91 1.043 2.779 1.911.868.868 1.216 1.736 1.563 2.778s.521 2.258.521 3.3v17.716h-4.342v-16.326c0-1.216-.174-2.084-.348-2.952-.347-.868-.694-1.39-1.215-1.911-.521-.521-1.042-.868-1.737-1.042-.695-.173-1.39-.347-2.084-.347-.869 0-1.563.174-2.432.521-.869.348-1.563.695-2.084 1.39-.521.694-1.216 1.39-1.563 2.258-.347.868-.521 1.91-.521 3.126v15.457h-4.342v-36.473zM404.972 552.641c0 1.216.347 2.432.694 3.3.348.868 1.042 1.91 1.737 2.605.695.694 1.563 1.389 2.432 1.736 1.042.348 2.084.694 3.126.694 1.39 0 2.779-.173 3.821-.694 1.042-.521 2.084-1.042 2.952-1.736l2.258 3.126c-1.216.868-2.605 1.736-3.995 2.258-1.563.521-3.3.868-5.21.868-1.911 0-3.647-.348-5.037-1.042-1.563-.695-2.779-1.563-3.821-2.779-1.042-1.216-1.911-2.604-2.432-4.342-.521-1.736-.869-3.474-.869-5.384s.348-3.821.869-5.384c.521-1.737 1.389-3.126 2.432-4.342 1.042-1.216 2.257-2.084 3.647-2.779 1.39-.694 3.126-1.042 4.863-1.042s3.3.348 4.689 1.042c1.39.695 2.605 1.563 3.474 2.779 1.042 1.216 1.736 2.604 2.258 4.342.521 1.736.694 3.474.694 5.384v1.39h-18.582zm7.12-11.116c-1.042 0-2.084.174-2.953.694-.868.521-1.563 1.042-2.258 1.737-.695.694-1.042 1.562-1.389 2.431-.348.869-.521 1.911-.521 2.779h13.72c0-1.042-.174-1.91-.521-2.952-.347-.869-.695-1.737-1.39-2.432-.521-.695-1.215-1.216-2.084-1.737-.867-.52-1.562-.52-2.604-.52zM440.923 527.805h4.516v36.472h-4.516v-36.472zM453.948 538.226h4.342v2.952c.869-1.216 1.911-2.084 3.3-2.605 1.39-.521 2.779-.868 4.342-.868 1.39 0 2.779.174 3.821.694 1.042.521 1.91 1.043 2.779 1.911.868.868 1.216 1.736 1.562 2.778.348 1.042.521 2.258.521 3.3v17.716h-4.342v-16.326c0-1.216-.174-2.084-.348-2.952-.348-.868-.694-1.39-1.216-1.911-.521-.521-1.042-.868-1.736-1.042-.695-.173-1.39-.347-2.085-.347-.868 0-1.562.174-2.431.521-.869.348-1.563.695-2.085 1.39-.521.694-1.216 1.39-1.562 2.258-.348.868-.521 1.91-.521 3.126v15.457h-4.342v-26.052h.001zM488.857 557.851c0 .521 0 .868.174 1.216 0 .348.174.695.348 1.042.174.348.521.521 1.042.695.521.173 1.042.173 1.736.173h1.563c.347 0 .521 0 .868-.173.348 0 .521 0 .694-.174l.521 3.82c-.521 0-1.042.174-1.563.174-.521 0-.868.174-1.389.174h-1.563c-1.042 0-1.91-.174-2.779-.348-.868-.173-1.562-.521-2.084-1.042-.521-.521-1.042-1.042-1.389-1.91-.348-.694-.521-1.736-.521-2.779v-16.673h-4.863v-3.82h4.863v-8.511l4.342-1.562v10.073h7.295v3.82h-7.295v15.805zM504.314 552.641c0 1.216.348 2.432.695 3.3.347.868 1.042 1.91 1.736 2.605.695.694 1.563 1.389 2.432 1.736 1.042.348 2.084.694 3.126.694 1.39 0 2.779-.173 3.821-.694 1.042-.521 2.084-1.042 2.952-1.736l2.258 3.126c-1.216.868-2.604 1.736-3.994 2.258-1.563.521-3.3.868-5.211.868-1.91 0-3.646-.348-5.036-1.042-1.563-.695-2.779-1.563-3.821-2.779s-1.91-2.604-2.432-4.342c-.521-1.736-.868-3.474-.868-5.384s.348-3.821.868-5.384c.521-1.737 1.39-3.126 2.432-4.342s2.258-2.084 3.647-2.779c1.39-.694 3.126-1.042 4.863-1.042 1.736 0 3.3.348 4.689 1.042 1.389.695 2.604 1.563 3.473 2.779 1.043 1.216 1.737 2.604 2.258 4.342.521 1.736.695 3.474.695 5.384v1.39h-18.583zm7.122-11.116c-1.042 0-2.084.174-2.952.694-.869.521-1.563 1.042-2.258 1.737-.695.694-1.042 1.562-1.39 2.431-.348.869-.521 1.911-.521 2.779h13.721c0-1.042-.174-1.91-.521-2.952-.348-.869-.695-1.737-1.39-2.432-.521-.695-1.216-1.216-2.084-1.737-.869-.52-1.563-.52-2.605-.52zM542.003 542.046h-.695c-1.042 0-2.084.174-3.126.348s-1.91.694-2.604 1.39c-.695.694-1.39 1.562-1.911 2.778-.521 1.216-.694 2.605-.694 4.342v13.374h-4.342v-26.052h4.342v4.168c.348-.694.694-1.39 1.216-2.084.521-.695 1.216-1.042 1.91-1.39.695-.348 1.39-.694 2.258-.868s1.563-.348 2.432-.348h1.216v4.342h-.002zM546.865 538.226h4.343v2.952c.868-1.216 1.91-2.084 3.3-2.605 1.389-.521 2.778-.868 4.342-.868 1.389 0 2.778.174 3.82.694 1.042.521 1.911 1.043 2.779 1.911s1.216 1.736 1.562 2.778c.348 1.042.521 2.258.521 3.3v17.716h-4.342v-16.326c0-1.216-.174-2.084-.348-2.952-.348-.868-.694-1.39-1.216-1.911-.521-.521-1.042-.868-1.736-1.042-.695-.173-1.39-.347-2.084-.347-.869 0-1.563.174-2.432.521-.868.348-1.563.695-2.084 1.39-.521.694-1.216 1.39-1.563 2.258s-.521 1.91-.521 3.126v15.457h-4.342v-26.052zM578.128 552.641c0 1.216.347 2.432.694 3.3s1.042 1.91 1.736 2.605c.695.694 1.563 1.389 2.432 1.736 1.042.348 2.084.694 3.126.694 1.39 0 2.779-.173 3.821-.694 1.042-.521 2.084-1.042 2.952-1.736l2.258 3.126c-1.216.868-2.604 1.736-3.994 2.258-1.563.521-3.3.868-5.21.868-1.911 0-3.647-.348-5.037-1.042-1.562-.695-2.778-1.563-3.82-2.779-1.043-1.216-1.911-2.604-2.432-4.342-.521-1.736-.869-3.474-.869-5.384s.348-3.821.869-5.384c.521-1.737 1.389-3.126 2.432-4.342 1.042-1.216 2.258-2.084 3.646-2.779 1.39-.694 3.127-1.042 4.863-1.042s3.3.348 4.689 1.042c1.389.695 2.604 1.563 3.474 2.779 1.042 1.216 1.736 2.604 2.258 4.342.521 1.736.694 3.474.694 5.384v1.39h-18.582zm7.12-11.116c-1.042 0-2.084.174-2.952.694-.868.521-1.563 1.042-2.258 1.737-.694.694-1.042 1.562-1.39 2.431-.348.869-.521 1.911-.521 2.779h13.72c0-1.042-.173-1.91-.521-2.952-.348-.869-.694-1.737-1.39-2.432-.521-.695-1.216-1.216-2.084-1.737-.867-.52-1.562-.52-2.604-.52zM608.868 557.851c0 .521 0 .868.174 1.216 0 .348.174.695.348 1.042.174.348.521.521 1.042.695.521.173 1.042.173 1.736.173h1.563c.347 0 .521 0 .868-.173.348 0 .521 0 .695-.174l.521 3.82c-.521 0-1.042.174-1.563.174-.521 0-.868.174-1.389.174H611.3c-1.042 0-1.91-.174-2.778-.348-.869-.173-1.563-.521-2.085-1.042-.521-.521-1.042-1.042-1.389-1.91-.348-.694-.521-1.736-.521-2.779v-16.673h-4.862v-3.82h4.862v-8.511l4.342-1.562v10.073h7.295v3.82h-7.295v15.805h-.001z"/></g></svg>