<svg version="1.1" id="Layer_1" xmlns="http://www.w3.org/2000/svg" x="0" y="0" viewBox="0 0 543 368.5" xml:space="preserve"><style>.st0{fill:none;stroke:#005ea5;stroke-width:7;stroke-miterlimit:10}.st2{fill:#005ea5}.st4,.st5,.st6{fill:#bfc1c3;stroke:#848484;stroke-width:2;stroke-miterlimit:10}.st5,.st6{opacity:.5;fill:none;stroke:#595959;stroke-width:4;enable-background:new}.st6{stroke:#fff;stroke-width:2}.st7{fill:#6a0}.st8{opacity:.5;fill:#c8f47a;enable-background:new}.st9{fill:#a82b00}.st10{opacity:.5;fill:#f28b7c;enable-background:new}.st11{fill:none}.st12{font-family:&apos;MyriadPro-Regular&apos;}.st13{font-size:30px}</style><path class="st0" d="M271 287.9v-120M271 171.9v-120M339 173.9v-120M205 166.9v-120"/><path fill="#fff" stroke="#005ea5" stroke-width="4" stroke-miterlimit="10" d="M3.9 150.9h536.4v60H3.9z"/><path class="st2" d="M450 56.9L392.4-.7V28H149.6V-.7L92 56.9l57.6 57.6V86.3h242.8v28.2z"/><path d="M498.8 291.9c-4 0-7.8.6-11.5 1.6-7.9-22.4-30.4-38.5-57-38.5-15.2 0-29 5.3-39.6 14-10.6-8.7-24.4-14-39.6-14s-29 5.3-39.6 14c-10.6-8.7-24.4-14-39.6-14h-1.2c-15.2 0-29 5.3-39.6 14-10.6-8.7-24.4-14-39.6-14s-29 5.3-39.6 14c-10.6-8.7-24.4-14-39.6-14-26.6 0-49.1 16.2-57 38.5-3.6-1-7.5-1.6-11.5-1.6C22 291.9 4 308.6 4 329.3s18 37.5 40.2 37.5H499c22.2 0 40.2-16.8 40.2-37.5-.2-20.7-18.2-37.4-40.4-37.4z" fill="#d1ebfb"/><path class="st4" d="M-5.8-112.1h38.5v56.4H-5.8z"/><path class="st5" d="M-3-91.8h31.9"/><path class="st6" d="M-2.9-93.1H29"/><path class="st5" d="M-3-86.4h31.9"/><path class="st6" d="M-2.9-87.7H29"/><path class="st5" d="M-3-81h31.9"/><path class="st6" d="M-2.9-82.3H29"/><path class="st5" d="M-3-75.6h31.9"/><path class="st6" d="M-2.9-76.9H29"/><path class="st5" d="M-3-70.1h31.9"/><path class="st6" d="M-2.9-71.4H29"/><path class="st5" d="M-3-64.7h31.9"/><path class="st6" d="M-2.9-66H29"/><path class="st5" d="M-3-59.3h31.9"/><path class="st6" d="M-2.9-60.6H29"/><circle class="st7" cx="-.3" cy="-102.4" r="2.4"/><circle class="st8" cy="-102.8" r="1.3"/><circle class="st9" cx="6.1" cy="-102.4" r="2.4"/><circle class="st10" cx="6.4" cy="-102.8" r="1.3"/><g><path class="st4" d="M56.1-112.1h38.5v56.4H56.1z"/><path class="st5" d="M58.9-91.8h31.9"/><path class="st6" d="M59-93.1h31.9"/><path class="st5" d="M58.9-86.4h31.9"/><path class="st6" d="M59-87.7h31.9"/><path class="st5" d="M58.9-81h31.9"/><path class="st6" d="M59-82.3h31.9"/><path class="st5" d="M58.9-75.6h31.9"/><path class="st6" d="M59-76.9h31.9"/><path class="st5" d="M58.9-70.1h31.9"/><path class="st6" d="M59-71.4h31.9"/><path class="st5" d="M58.9-64.7h31.9"/><path class="st6" d="M59-66h31.9"/><path class="st5" d="M58.9-59.3h31.9"/><path class="st6" d="M59-60.6h31.9"/><circle class="st7" cx="61.5" cy="-102.4" r="2.4"/><circle class="st8" cx="61.9" cy="-102.8" r="1.3"/><circle class="st9" cx="68" cy="-102.4" r="2.4"/><circle class="st10" cx="68.3" cy="-102.8" r="1.3"/></g><g><path class="st4" d="M117.4-112.1h38.5v56.4h-38.5z"/><path class="st5" d="M120.3-91.8h31.8"/><path class="st6" d="M120.4-93.1h31.8"/><path class="st5" d="M120.3-86.4h31.8"/><path class="st6" d="M120.4-87.7h31.8"/><path class="st5" d="M120.3-81h31.8"/><path class="st6" d="M120.4-82.3h31.8"/><path class="st5" d="M120.3-75.6h31.8"/><path class="st6" d="M120.4-76.9h31.8"/><path class="st5" d="M120.3-70.1h31.8"/><path class="st6" d="M120.4-71.4h31.8"/><path class="st5" d="M120.3-64.7h31.8"/><path class="st6" d="M120.4-66h31.8"/><path class="st5" d="M120.3-59.3h31.8"/><path class="st6" d="M120.4-60.6h31.8"/><circle class="st7" cx="122.9" cy="-102.4" r="2.4"/><circle class="st8" cx="123.2" cy="-102.8" r="1.3"/><circle class="st9" cx="129.3" cy="-102.4" r="2.4"/><circle class="st10" cx="129.6" cy="-102.8" r="1.3"/></g><path class="st11" d="M180.1 167.9h183v97h-183z"/><text transform="translate(217.839 189.19)" class="st2 st12 st13">Platform</text><path class="st11" d="M125.6 43.9h292v52h-292z"/><text transform="translate(195.565 65.19)" class="st12 st13" fill="#fff">Your service</text><path class="st11" d="M125.6 303.9h292v97h-292z"/><text transform="translate(192.32 324.896)" class="st2 st13" font-family="GDSTransportWebsite">The Internet</text></svg>