<svg version="1.1" id="Layer_1" xmlns="http://www.w3.org/2000/svg" x="0" y="0" viewBox="0 0 543 355.6" xml:space="preserve"><style>.st2{fill:none}.st3{enable-background:new}.st4{fill:#666}.st5{fill:#fff}</style><path d="M542 345.1c0 3.8-2.9 7-6.4 7H7.4c-3.5 0-6.4-3.2-6.4-7V7.9c0-3.8 2.9-7 6.4-7h528.2c3.5 0 6.4 3.2 6.4 7v337.2z" fill="#bfc1c3"/><path fill="#262626" stroke="#969696" stroke-miterlimit="10" d="M6.2 38.3h530.1v309.5H6.2z"/><path class="st2" d="M20.7 55h485v278.9h-485z"/><g class="st3"><path class="st4" d="M29.7 56v9.4h1.9v1.5h-1.9V71H28v-4.1h-6v-1.2l6.4-9.6h1.3zm-6.1 9.4H28v-6.7l-4.4 6.7z"/></g><g class="st3"><path class="st4" d="M30.9 84.8v1.5h-6.2l-.2 4.3c.8-.4 1.6-.6 2.4-.6 2.5 0 4.5 1.8 4.5 5s-2.1 5-4.7 5c-1.8 0-3.4-.8-4.4-2.3l1.5-1.1c.2.1.1.4.2.6.1.2 1.1 1.4 2.7 1.4s3-1.3 3-3.6c0-2.4-1.5-3.6-3.1-3.6-1 0-2.1.5-2.8 1.4l-1.1-.4.5-7.6h7.7z"/></g><g class="st3"><path class="st4" d="M30.9 114.9l-1.2 1.3c-.2-.2-.2-.4-.4-.5-.1-.1-.8-.6-1.7-.6-1.1 0-3.5.7-3.6 5.8.7-1.1 1.9-1.8 3.2-1.8 2.1 0 4.1 1.8 4.1 4.9 0 3.1-2 5-4.3 5-1.3 0-2.7-.7-3.5-2-1-1.5-1.1-3.3-1.1-5.1 0-1.4.1-3.2.6-4.6.9-2.6 2.9-3.7 4.6-3.7 1.2-.1 2.4.4 3.3 1.3zm-6.8 7.5c-.2 2.8 1.2 4.9 3 4.9 1.3 0 2.6-1.1 2.6-3.4 0-2.6-1.4-3.5-2.6-3.5-1.2 0-2.3.8-3 2z"/></g><g class="st3"><path class="st4" d="M31.1 142.5v.9c-1 2.3-2 4.7-2.8 7-.9 2.3-1.7 4.6-2.4 7H24c.9-2.7 1.8-5.4 2.9-8 .7-1.8 1.4-3.6 2.2-5.4h-6.4v-1.6h8.4z"/></g><g class="st3"><path class="st4" d="M30.8 174.6c0 1.4-.9 2.8-2.4 3.6 1.7.8 2.9 2.4 2.9 4.1 0 2.3-2 4.1-4.6 4.1-2.6 0-4.5-1.8-4.5-4 0-1.7 1.2-3.4 3-4.2-1.3-.7-2.3-2-2.3-3.5 0-2 1.8-3.7 4-3.7 2.2.1 3.9 1.6 3.9 3.6zm-6.9 7.6c0 1.5 1.3 2.7 2.9 2.7 1.6 0 2.8-1.2 2.8-2.6 0-1.5-1.3-2.8-3.2-3.4-1.4.6-2.5 1.9-2.5 3.3zm.6-7.6c0 2 2.6 3 2.6 3 1.2-.6 2.1-1.7 2.1-2.9s-1-2.2-2.4-2.2c-1.3 0-2.3.9-2.3 2.1z"/></g><g class="st3"><path class="st4" d="M22.6 213.9l1.2-1.3c.3.2.2.4.4.6 0 0 .7.5 1.8.5s2.3-.5 3-2.1c.2-.4.5-1.4.6-3.7-.7 1-1.8 1.6-3.1 1.6-2.2 0-4.1-1.8-4.1-4.7 0-2.9 2-5 4.3-5 1.6 0 3.3 1 4.1 3.2.3 1 .5 2.3.5 4.2 0 2.4-.4 3.7-.6 4.4-.9 2.4-2.8 3.5-4.6 3.5-1.4.2-2.6-.3-3.5-1.2zm6.9-7.6c.3-3-1.2-4.9-2.9-4.9-1.4 0-2.6 1.2-2.6 3.4s1.3 3.3 2.6 3.3c1.1 0 2.2-.7 2.9-1.8z"/></g><g class="st3"><path class="st4" d="M27.9 243.8h-1.7v-12.9l-3 .9-.4-.9 3.9-2.1h1.2v15zM43.5 236.6c0 5.1-2.6 7.5-4.7 7.5-2.4 0-4.9-2.8-4.9-7.6s2.5-7.7 4.8-7.7c2.4-.1 4.8 2.7 4.8 7.8zm-4.8-6.4c-1.5 0-3.2 2.1-3.2 5.9 0 1.1.1 2 .3 2.8l5.3-6.8c-.6-1.3-1.5-1.9-2.4-1.9zm-2.3 10.3c.6 1.3 1.6 2 2.5 2 1.3 0 3.1-1.6 3.1-5.8 0-1.2-.1-2.2-.3-3l-5.3 6.8z"/></g><g class="st3"><path class="st4" d="M27.9 272.6h-1.7v-12.9l-3 .9-.4-.9 3.9-2.1h1.2v15zM39.9 272.6h-1.7v-12.9l-3 .9-.4-.9 3.9-2.1h1.2v15z"/></g><g class="st3"><path class="st4" d="M27.9 301.4h-1.7v-12.9l-3 .9-.4-.9 3.9-2.1h1.2v15zM38.8 286.3c2.4 0 4.3 1.9 4.3 4.2 0 2.2-1.5 3.7-2.6 4.7s-2.8 2.5-4.1 4.7h6.3c.1 0 .2 0 .3-.1 0 0 .2-.2.3-.1v1.7h-8.8v-1.1c1.3-2.5 2.6-4 4.3-5.6 1.1-1 2.6-2.3 2.6-4.1 0-1.6-1.3-2.8-2.9-2.8-1.3 0-2.2.8-2.6 1.4-.1.2-.1.3-.2.6l-1.2-1c1-1.5 2.6-2.5 4.3-2.5z"/></g><g class="st3"><path class="st4" d="M27.9 330.2h-1.7v-12.9l-3 .9-.4-.9 3.9-2.1h1.2v15zM40.4 322.2c1.6.6 2.6 2.1 2.6 3.9 0 2.3-1.7 4.4-4.6 4.4-1.5 0-2.9-.6-3.9-1.7l1.3-1.5c.2.2.1.5.3.7.1.1.9 1 2.3 1 1.8 0 3-1.4 3-3 0-1.8-1.5-2.8-3.5-2.8-.3 0-.5 0-.8.1V322c1.4 0 2.1-.3 2.4-.4 1-.5 1.6-1.4 1.6-2.4 0-1.3-1.1-2.3-2.6-2.3-.9 0-1.9.4-2.6 1.1l-.9-1c.9-1 2.2-1.6 3.6-1.6 2.4 0 4.1 1.7 4.1 3.8-.1 1.2-1 2.5-2.3 3z"/></g><path class="st2" d="M65.7 55h485v278.9h-485z"/><g class="st3"><path class="st5" d="M69.9 60l-.1 2.1c.7-1.6 2.3-2.4 3.9-2.4 1.2 0 2.2.5 2.9 1.2l-.8 1.7c-.2-.2-.3-.4-.4-.5-.3-.4-.9-.8-1.8-.8-.8 0-2.1.3-3.1 1.8-.7 1.2-.8 1.9-.8 2.6V71H68V60h1.9zM83.8 71.3c-2.8 0-5.1-2.4-5.1-5.7 0-3.4 2.4-5.8 5.2-5.8 2.5 0 4.9 2 4.9 5.8 0 3.6-2.4 5.7-5 5.7zm-3.3-5.8c0 2.7 1.6 4.3 3.3 4.3 1.6 0 3.2-1.4 3.2-4.2 0-3-1.7-4.4-3.3-4.4-1.6.1-3.2 1.6-3.2 4.3zM93 60v6.1c0 .7 0 1.6.4 2.4.4.9 1.2 1.3 2.1 1.3 1.1 0 2-.7 2.5-1.6.4-.7.4-1.3.4-2.2v-6h1.7v10c0 .3 0 .7.1 1h-1.8v-1.6c-.7 1.2-2 1.9-3.4 1.9s-2.8-.8-3.4-2.2c-.4-1-.4-1.9-.4-2.9v-6.1H93zM108.1 56.8c.1.2-.1.4-.1.6-.1.6-.3 2.6-.3 2.6h3.6v1.4h-3.6c-.1 1.4-.2 2.9-.2 4.3 0 1.6.1 2 .1 2.1.2 1.3 1 1.8 1.8 1.8.7 0 1.5-.3 2.5-1l.5 1.4c-.9.7-2.2 1.2-3.5 1.2-1.1 0-2-.4-2.5-1.2-.6-.9-.6-2-.6-3 0-1.9.1-3.7.2-5.6h-2.6V60h2.6l.2-2.9 1.9-.3zM124.3 63.7c.1.6.1 1.3.1 2.1h-7.8c.1 3.3 2.3 4.1 3.7 4.1 1.1 0 2.1-.4 2.8-1.2l1 .9c-.9 1.1-2.4 1.7-3.9 1.7-3 0-5.3-2-5.3-5.6 0-4 2.4-5.9 5-5.9 1.8 0 3.9.9 4.4 3.9zm-1.6.7c.2-1.8-1.1-3.3-2.8-3.3-1.2 0-2.8.8-3.2 3.3h6zM135.1 63s-.1 0-.1-.2c0-.1 0-.1-.1-.2-.4-.5-1.5-1.5-3-1.5-1.2 0-2.3.6-2.3 1.5 0 .4.2.9 1.1 1.3 1 .5 2.8.7 4 1.4 1.3.7 1.6 1.7 1.6 2.5 0 1.7-1.6 3.4-4.6 3.4-1.7 0-3.3-.5-4.6-1.7l1-1.7c.1.1.1.2.1.2 0 .1 0 .2.1.3.3.4 1.6 1.5 3.4 1.5 1.6 0 2.8-.7 2.8-1.7 0-.4-.2-1-1.1-1.4-.8-.4-2-.7-2.9-1-.6-.2-2.7-.9-2.7-2.8 0-1.6 1.7-3.1 4.2-3.1 1.6 0 3.1.6 4.1 1.7l-1 1.5zM143.5 63.6c-.8 0-1.4-.6-1.4-1.4 0-.8.6-1.4 1.4-1.4.8 0 1.4.6 1.4 1.4 0 .8-.6 1.4-1.4 1.4zm0 7.7c-.8 0-1.4-.6-1.4-1.4 0-.8.6-1.4 1.4-1.4.8 0 1.4.6 1.4 1.4 0 .8-.6 1.4-1.4 1.4z"/></g><g class="st3"><path class="st5" d="M76.1 91.5v1.6h-8.6v-1.6h8.6zM93.9 88.8V91c.7-1.6 2.3-2.4 3.9-2.4 1.2 0 2.2.5 2.9 1.2l-.8 1.7c-.2-.2-.3-.4-.4-.5-.3-.4-.9-.8-1.8-.8-.8 0-2.1.3-3.1 1.8-.7 1.2-.8 1.9-.8 2.6v5.3h-1.7v-11h1.8zM107.8 100.1c-2.8 0-5.1-2.4-5.1-5.7 0-3.4 2.4-5.8 5.2-5.8 2.5 0 4.9 2 4.9 5.8 0 3.6-2.4 5.7-5 5.7zm-3.3-5.8c0 2.7 1.6 4.3 3.3 4.3 1.6 0 3.2-1.4 3.2-4.2 0-3-1.7-4.4-3.3-4.4-1.6.1-3.2 1.6-3.2 4.3zM117 88.8V95c0 .7 0 1.6.4 2.4.4.9 1.2 1.3 2.1 1.3 1.1 0 2-.7 2.5-1.6.4-.7.4-1.3.4-2.2v-6h1.7v10c0 .3 0 .7.1 1h-1.8v-1.6c-.7 1.2-2 1.9-3.4 1.9s-2.8-.8-3.4-2.2c-.4-1-.4-1.9-.4-2.9V89h1.8zM132.1 85.6c.1.2-.1.4-.1.6-.1.6-.3 2.6-.3 2.6h3.6v1.4h-3.6c-.1 1.4-.2 2.9-.2 4.3 0 1.6.1 2 .1 2.1.2 1.3 1 1.8 1.8 1.8.7 0 1.5-.3 2.5-1l.5 1.4c-.9.7-2.2 1.2-3.5 1.2-1.1 0-2-.4-2.5-1.2-.6-.9-.6-2-.6-3 0-1.9.1-3.7.2-5.6h-2.6v-1.4h2.6l.2-2.9 1.9-.3zM148.3 92.5c.1.6.1 1.3.1 2.1h-7.8c.1 3.3 2.3 4.1 3.7 4.1 1.1 0 2.1-.4 2.8-1.2l1 .9c-.9 1.1-2.4 1.7-3.9 1.7-3 0-5.3-2-5.3-5.6 0-4 2.4-5.9 5-5.9 1.8 0 3.9.9 4.4 3.9zm-1.6.7c.2-1.8-1.1-3.3-2.8-3.3-1.2 0-2.8.8-3.2 3.3h6zM155.5 92.4c-.8 0-1.4-.6-1.4-1.4 0-.8.6-1.4 1.4-1.4.8 0 1.4.6 1.4 1.4 0 .8-.6 1.4-1.4 1.4zm0 7.7c-.8 0-1.4-.6-1.4-1.4 0-.8.6-1.4 1.4-1.4.8 0 1.4.6 1.4 1.4 0 .8-.6 1.4-1.4 1.4zM175.9 88.8c.1.2 0 .3 0 .5-.1.2-.1.3 0 .4l1.6 7.9 1.9-7.8h1.1l2.3 7.8c.9-6.2 1.1-7.5 1-8.8h1.6c-.5 3.7-1.1 7.3-1.8 11H182l-2-7.1-1.9 7.1h-1.6l-2.2-11h1.6zM187.9 88.8c.1.2 0 .3 0 .5-.1.2-.1.3 0 .4l1.6 7.9 1.9-7.8h1.1l2.3 7.8c.9-6.2 1.1-7.5 1-8.8h1.6c-.5 3.7-1.1 7.3-1.8 11H194l-2-7.1-1.9 7.1h-1.6l-2.2-11h1.6zM199.9 88.8c.1.2 0 .3 0 .5-.1.2-.1.3 0 .4l1.6 7.9 1.9-7.8h1.1l2.3 7.8c.9-6.2 1.1-7.5 1-8.8h1.6c-.5 3.7-1.1 7.3-1.8 11H206l-2-7.1-1.9 7.1h-1.6l-2.2-11h1.6zM215.5 100.1c-.8 0-1.4-.6-1.4-1.4 0-.8.6-1.4 1.4-1.4.8 0 1.4.6 1.4 1.4 0 .8-.6 1.4-1.4 1.4zM222.6 88.8h1.6v1.1c.5-.8 1.3-1.3 2.2-1.3 1 0 1.8.7 1.9 1.6.4-1 1.4-1.6 2.5-1.6.6 0 1.3.2 1.7.9.5.7.4 1.7.4 2.6v7.8h-1.6V92c0-.5.1-1.1-.1-1.6-.2-.4-.5-.6-.9-.6-.7 0-1.1.7-1.3 1-.4.7-.5 1.2-.5 1.7v7.2H227v-7.6c0-.5 0-1-.1-1.4-.2-.6-.6-.8-1-.8s-.9.3-1.3 1c-.3.6-.3 1.1-.3 1.6v7.3h-1.6v-11zM237 88.8c0 .2-.1.3-.1.5v.2l3.2 8.1 2.1-5.9c.3-.9.6-1.9.8-2.9h1.8c-.3 1.1-.7 2.1-1.1 3.2l-3.4 9.1c-.2.6-.5 1.2-.9 1.7-.7.8-1.8 1.2-2.7 1.2-.9 0-1.7-.3-2.4-.9l.9-1.6c.1.1.1.3.2.4.1.1.5.7 1.3.7.5 0 1.1-.2 1.5-.7.3-.4.6-.8.8-1.3l.4-.8-4.5-10.9h2.1zM251.8 88.6c1.7 0 3.1.6 3.8 1.8.5.8.5 1.7.5 2.6v6.8h-1.6v-1.2c-1.2 1-2.6 1.5-3.9 1.5-2.3 0-3.7-1.5-3.7-3.1 0-1.2.8-2.5 2.5-3.1 1.4-.5 3.1-.5 4.7-.5h.4V93c0-.6 0-1.3-.4-1.9-.3-.5-1-1.1-2.3-1.1-1 0-2.2.3-3.1 1.2l-.8-1.1c1-1 2.4-1.5 3.9-1.5zm2.4 6.1c-1.1 0-2.6-.1-3.6.2-1.4.3-1.9 1.2-1.9 2 0 1 .8 1.9 2.3 1.9 1.4 0 2.5-.9 2.9-1.3.7-.8.7-1.5.7-2.1v-.7h-.4zM260.9 88.8v1.7c.7-1.2 2.1-1.9 3.5-1.9 2.2 0 4.4 1.7 4.4 5.6 0 4-2.4 5.9-4.6 5.9-1.3 0-2.6-.7-3.3-1.7v5.4h-1.8v-15h1.8zm.3 2.9c-.2.6-.3 1.2-.3 2.2 0 1.6 0 2.5.3 3.2.4 1 1.5 1.5 2.5 1.5s3.3-.6 3.3-4c0-4-2.3-4.5-3.3-4.5s-2.1.6-2.5 1.6zM272.9 88.8v1.7c.7-1.2 2.1-1.9 3.5-1.9 2.2 0 4.4 1.7 4.4 5.6 0 4-2.4 5.9-4.6 5.9-1.3 0-2.6-.7-3.3-1.7v5.4h-1.8v-15h1.8zm.3 2.9c-.2.6-.3 1.2-.3 2.2 0 1.6 0 2.5.3 3.2.4 1 1.5 1.5 2.5 1.5s3.3-.6 3.3-4c0-4-2.3-4.5-3.3-4.5s-2.1.6-2.5 1.6zM287.5 100.1c-.8 0-1.4-.6-1.4-1.4 0-.8.6-1.4 1.4-1.4s1.4.6 1.4 1.4c0 .8-.6 1.4-1.4 1.4zM304.3 92.5c.1.6.1 1.3.1 2.1h-7.8c.1 3.3 2.3 4.1 3.7 4.1 1.1 0 2.1-.4 2.8-1.2l1 .9c-.9 1.1-2.4 1.7-3.9 1.7-3 0-5.3-2-5.3-5.6 0-4 2.4-5.9 5-5.9 1.8 0 3.9.9 4.4 3.9zm-1.6.7c.2-1.8-1.1-3.3-2.8-3.3-1.2 0-2.8.8-3.2 3.3h6zM316.2 88.8l-3.6 5.3 4 5.6h-2l-3-4.3-2.9 4.3h-1.9l3.9-5.6-3.8-5.4h1.9l2.9 4.1 2.7-4.1h1.8zM323.8 88.6c1.7 0 3.1.6 3.8 1.8.5.8.5 1.7.5 2.6v6.8h-1.6v-1.2c-1.2 1-2.6 1.5-3.9 1.5-2.3 0-3.7-1.5-3.7-3.1 0-1.2.8-2.5 2.5-3.1 1.4-.5 3.1-.5 4.7-.5h.4V93c0-.6 0-1.3-.4-1.9-.3-.5-1-1.1-2.3-1.1-1 0-2.2.3-3.1 1.2l-.8-1.1c1-1 2.4-1.5 3.9-1.5zm2.4 6.1c-1.1 0-2.6-.1-3.6.2-1.4.3-1.9 1.2-1.9 2 0 1 .8 1.9 2.3 1.9 1.4 0 2.5-.9 2.9-1.3.7-.8.7-1.5.7-2.1v-.7h-.4zM330.6 88.8h1.6v1.1c.5-.8 1.3-1.3 2.2-1.3 1 0 1.8.7 1.9 1.6.4-1 1.4-1.6 2.5-1.6.6 0 1.3.2 1.7.9.5.7.4 1.7.4 2.6v7.8h-1.6V92c0-.5.1-1.1-.1-1.6-.2-.4-.5-.6-.9-.6-.7 0-1.1.7-1.3 1-.4.7-.5 1.2-.5 1.7v7.2H335v-7.6c0-.5 0-1-.1-1.4-.2-.6-.6-.8-1-.8s-.9.3-1.3 1c-.3.6-.3 1.1-.3 1.6v7.3h-1.6v-11zM344.9 88.8v1.7c.7-1.2 2.1-1.9 3.5-1.9 2.2 0 4.4 1.7 4.4 5.6 0 4-2.4 5.9-4.6 5.9-1.3 0-2.6-.7-3.3-1.7v5.4h-1.8v-15h1.8zm.3 2.9c-.2.6-.3 1.2-.3 2.2 0 1.6 0 2.5.3 3.2.4 1 1.5 1.5 2.5 1.5s3.3-.6 3.3-4c0-4-2.3-4.5-3.3-4.5s-2.1.6-2.5 1.6zM360.6 83.9v14.6h3.2v1.4h-8.2v-1.4h3.3V85.2h-3.1v-1.4h4.8zM376.3 92.5c.1.6.1 1.3.1 2.1h-7.8c.1 3.3 2.3 4.1 3.7 4.1 1.1 0 2.1-.4 2.8-1.2l1 .9c-.9 1.1-2.4 1.7-3.9 1.7-3 0-5.3-2-5.3-5.6 0-4 2.4-5.9 5-5.9 1.8 0 3.9.9 4.4 3.9zm-1.6.7c.2-1.8-1.1-3.3-2.8-3.3-1.2 0-2.8.8-3.2 3.3h6zM383.5 100.1c-.8 0-1.4-.6-1.4-1.4 0-.8.6-1.4 1.4-1.4s1.4.6 1.4 1.4c0 .8-.6 1.4-1.4 1.4zM397.9 89.5c.8-.7 1.9-1.1 3-1l.2 1.4c-.2 0-.4-.1-.6-.1-.7 0-1.3.2-1.9.5.4.5.6 1.2.6 1.9 0 2-1.8 3.8-4 3.8-.5 0-.9-.1-1.4-.2-.1.1-.8.6-.8 1.2 0 .3.2.6.7.7.2.1.7.1 1.6.1 1.2 0 2.6-.2 3.7.3 1.2.5 1.7 1.4 1.7 2.4 0 1.5-1.3 3.4-5 3.4-3.8 0-5-1.4-5-2.6 0-.9.6-1.7 1.8-2.4-.7-.4-.9-1-.9-1.5 0-.7.5-1.4 1.2-2.1-1-.7-1.6-1.8-1.6-3 0-2.1 1.9-3.9 4.1-3.9 1 .1 1.9.5 2.6 1.1zm-5.7 11.4c0 .4.2 1 1.1 1.3.8.3 1.8.4 2.3.4.7 0 1.7 0 2.5-.5.8-.4 1-1 1-1.5s-.3-1.1-1.3-1.3c-.6-.1-1.5 0-2.3-.1-.8 0-1.4-.1-1.8-.1-.7.5-1.5 1-1.5 1.8zm3-6.2c1.3 0 2.4-1.1 2.4-2.4s-1.1-2.4-2.4-2.4c-1.3 0-2.4 1.1-2.4 2.4 0 1.3 1 2.4 2.4 2.4zM407.8 100.1c-2.8 0-5.1-2.4-5.1-5.7 0-3.4 2.4-5.8 5.2-5.8 2.5 0 4.9 2 4.9 5.8 0 3.6-2.4 5.7-5 5.7zm-3.3-5.8c0 2.7 1.6 4.3 3.3 4.3 1.6 0 3.2-1.4 3.2-4.2 0-3-1.7-4.4-3.3-4.4-1.6.1-3.2 1.6-3.2 4.3zM416.8 88.8c0 .2-.1.3-.1.5v.2l3.2 8 1.8-4.1c.6-1.4 1.2-3 1.5-4.6h1.6c-.4 1.7-1 3.3-1.6 4.8l-2.7 6.3H419l-4.3-11.1h2.1zM431.5 100.1c-.8 0-1.4-.6-1.4-1.4 0-.8.6-1.4 1.4-1.4s1.4.6 1.4 1.4c0 .8-.6 1.4-1.4 1.4zM441 88.8V95c0 .7 0 1.6.4 2.4.4.9 1.2 1.3 2.1 1.3 1.1 0 2-.7 2.5-1.6.4-.7.4-1.3.4-2.2v-6h1.7v10c0 .3 0 .7.1 1h-1.8v-1.6c-.7 1.2-2 1.9-3.4 1.9s-2.8-.8-3.4-2.2c-.4-1-.4-1.9-.4-2.9V89h1.8zM453.3 83.9c0 .2-.1.3-.1.3-.1.1-.1.2-.1.3v9.4l5.5-5.1c.4.1.9.1 1.3.1h.6l-4.6 4.3 5.4 6.6h-.2c-1.1 0-2.1.1-2.1.1l-4.5-5.6-1.5 1.3v4.2h-1.7v-16h2z"/></g><g class="st3"><path class="st5" d="M72.7 146.4v9.6h2.6v1.4h-7.1V156H71v-8.2h-2.7v-1.4h4.4zm.4-3.5c0 .7-.6 1.2-1.2 1.2-.7 0-1.2-.6-1.2-1.2s.6-1.2 1.2-1.2 1.2.5 1.2 1.2zM79.4 146.4h1.8v1.9c.8-1.2 2.2-2.2 3.6-2.2 1.2 0 2.4.7 2.9 1.9.4.9.4 1.8.4 2.6v6.6h-1.7v-6.6c0-.8 0-1.7-.6-2.4-.4-.5-.9-.7-1.5-.7-1.2 0-2.2 1-2.6 1.5-.5.6-.5 1.1-.5 1.9v6.3h-1.8v-10.8zM99.1 149.4s-.1 0-.1-.2c0-.1 0-.1-.1-.2-.4-.5-1.5-1.5-3-1.5-1.2 0-2.3.6-2.3 1.5 0 .4.2.9 1.1 1.3 1 .5 2.8.7 4 1.4 1.3.7 1.6 1.7 1.6 2.5 0 1.7-1.6 3.4-4.6 3.4-1.7 0-3.3-.5-4.6-1.7l1-1.7c.1.1.1.2.1.2 0 .1 0 .2.1.3.3.4 1.6 1.5 3.4 1.5 1.6 0 2.8-.7 2.8-1.7 0-.4-.2-1-1.1-1.4-.8-.4-2-.7-2.9-1-.6-.2-2.7-.9-2.7-2.8 0-1.6 1.7-3.1 4.2-3.1 1.6 0 3.1.6 4.1 1.7l-1 1.5zM108.1 143.2c.1.2-.1.4-.1.6-.1.6-.3 2.6-.3 2.6h3.6v1.4h-3.6c-.1 1.4-.2 2.9-.2 4.3 0 1.6.1 2 .1 2.1.2 1.3 1 1.8 1.8 1.8.7 0 1.5-.3 2.5-1l.5 1.4c-.9.7-2.2 1.2-3.5 1.2-1.1 0-2-.4-2.5-1.2-.6-.9-.6-2-.6-3 0-1.9.1-3.7.2-5.6h-2.6v-1.4h2.6l.2-2.9 1.9-.3zM119.8 146.2c1.7 0 3.1.6 3.8 1.8.5.8.5 1.7.5 2.6v6.8h-1.6v-1.2c-1.2 1-2.6 1.5-3.9 1.5-2.3 0-3.7-1.5-3.7-3.1 0-1.2.8-2.5 2.5-3.1 1.4-.5 3.1-.5 4.7-.5h.4v-.4c0-.6 0-1.3-.4-1.9-.3-.5-1-1.1-2.3-1.1-1 0-2.2.3-3.1 1.2l-.8-1.1c1-1 2.4-1.5 3.9-1.5zm2.4 6.1c-1.1 0-2.6-.1-3.6.2-1.4.3-1.9 1.2-1.9 2 0 1 .8 1.9 2.3 1.9 1.4 0 2.5-.9 2.9-1.3.7-.8.7-1.5.7-2.1v-.7h-.4zM127.4 146.4h1.8v1.9c.8-1.2 2.2-2.2 3.6-2.2 1.2 0 2.4.7 2.9 1.9.4.9.4 1.8.4 2.6v6.6h-1.7v-6.6c0-.8 0-1.7-.6-2.4-.4-.5-.9-.7-1.5-.7-1.2 0-2.2 1-2.6 1.5-.5.6-.5 1.1-.5 1.9v6.3h-1.8v-10.8zM147.5 149.7c-.2-.1-.1-.4-.2-.6-.1-.1-1-1.4-2.8-1.4-2 0-3.6 1.6-3.6 4.1 0 2.6 1.6 4.4 3.8 4.4 1.1 0 2.2-.5 2.9-1.3l1 1.2c-1 1.1-2.5 1.7-4 1.7-3.1 0-5.4-2.4-5.4-5.7 0-3.3 2.3-5.7 5.5-5.7 1.8 0 3.2.8 4.1 2l-1.3 1.3zM160.3 150.1c.1.6.1 1.3.1 2.1h-7.8c.1 3.3 2.3 4.1 3.7 4.1 1.1 0 2.1-.4 2.8-1.2l1 .9c-.9 1.1-2.4 1.7-3.9 1.7-3 0-5.3-2-5.3-5.6 0-4 2.4-5.9 5-5.9 1.8 0 3.9.9 4.4 3.9zm-1.6.7c.2-1.8-1.1-3.3-2.8-3.3-1.2 0-2.8.8-3.2 3.3h6zM171.1 149.4s-.1 0-.1-.2c0-.1 0-.1-.1-.2-.4-.5-1.5-1.5-3-1.5-1.2 0-2.3.6-2.3 1.5 0 .4.2.9 1.1 1.3 1 .5 2.8.7 4 1.4 1.3.7 1.6 1.7 1.6 2.5 0 1.7-1.6 3.4-4.6 3.4-1.7 0-3.3-.5-4.6-1.7l1-1.7c.1.1.1.2.1.2 0 .1 0 .2.1.3.3.4 1.6 1.5 3.4 1.5 1.6 0 2.8-.7 2.8-1.7 0-.4-.2-1-1.1-1.4-.8-.4-2-.7-2.9-1-.6-.2-2.7-.9-2.7-2.8 0-1.6 1.7-3.1 4.2-3.1 1.6 0 3.1.6 4.1 1.7l-1 1.5zM179.5 150c-.8 0-1.4-.6-1.4-1.4 0-.8.6-1.4 1.4-1.4.8 0 1.4.6 1.4 1.4 0 .8-.6 1.4-1.4 1.4zm0 7.7c-.8 0-1.4-.6-1.4-1.4 0-.8.6-1.4 1.4-1.4.8 0 1.4.6 1.4 1.4 0 .8-.6 1.4-1.4 1.4zM206.7 142.4v9.4h1.9v1.5h-1.9v4.1H205v-4.1h-6V152l6.4-9.6h1.3zm-6.1 9.4h4.4v-6.7l-4.4 6.7z"/></g><g class="st3"><path class="st5" d="M66.6 204h1.6v1.1c.5-.8 1.3-1.3 2.2-1.3 1 0 1.8.7 1.9 1.6.4-1 1.4-1.6 2.5-1.6.6 0 1.3.2 1.7.9.5.7.4 1.7.4 2.6v7.8h-1.6v-7.8c0-.5.1-1.1-.1-1.6-.2-.4-.5-.6-.9-.6-.7 0-1.1.7-1.3 1-.4.7-.5 1.2-.5 1.7v7.2H71v-7.6c0-.5 0-1-.1-1.4-.2-.6-.6-.8-1-.8s-.9.3-1.3 1c-.3.6-.3 1.1-.3 1.6v7.3h-1.6V204zM88.3 207.7c.1.6.1 1.3.1 2.1h-7.8c.1 3.3 2.3 4.1 3.7 4.1 1.1 0 2.1-.4 2.8-1.2l1 .9c-.9 1.1-2.4 1.7-3.9 1.7-3 0-5.3-2-5.3-5.6 0-4 2.4-5.9 5-5.9 1.8 0 3.9.9 4.4 3.9zm-1.6.7c.2-1.8-1.1-3.3-2.8-3.3-1.2 0-2.8.8-3.2 3.3h6zM90.6 204h1.6v1.1c.5-.8 1.3-1.3 2.2-1.3 1 0 1.8.7 1.9 1.6.4-1 1.4-1.6 2.5-1.6.6 0 1.3.2 1.7.9.5.7.4 1.7.4 2.6v7.8h-1.6v-7.8c0-.5.1-1.1-.1-1.6-.2-.4-.5-.6-.9-.6-.7 0-1.1.7-1.3 1-.4.7-.5 1.2-.5 1.7v7.2H95v-7.6c0-.5 0-1-.1-1.4-.2-.6-.6-.8-1-.8s-.9.3-1.3 1c-.3.6-.3 1.1-.3 1.6v7.3h-1.6V204zM107.8 215.3c-2.8 0-5.1-2.4-5.1-5.7 0-3.4 2.4-5.8 5.2-5.8 2.5 0 4.9 2 4.9 5.8 0 3.6-2.4 5.7-5 5.7zm-3.3-5.8c0 2.7 1.6 4.3 3.3 4.3 1.6 0 3.2-1.4 3.2-4.2 0-3-1.7-4.4-3.3-4.4-1.6.1-3.2 1.6-3.2 4.3zM117.9 204l-.1 2.1c.7-1.6 2.3-2.4 3.9-2.4 1.2 0 2.2.5 2.9 1.2l-.8 1.7c-.2-.2-.3-.4-.4-.5-.3-.4-.9-.8-1.8-.8-.8 0-2.1.3-3.1 1.8-.7 1.2-.8 1.9-.8 2.6v5.3H116v-11h1.9zM129 204c0 .2-.1.3-.1.5v.2l3.2 8.1 2.1-5.9c.3-.9.6-1.9.8-2.9h1.8c-.3 1.1-.7 2.1-1.1 3.2l-3.4 9.1c-.2.6-.5 1.2-.9 1.7-.7.8-1.8 1.2-2.7 1.2-.9 0-1.7-.3-2.4-.9l.9-1.6c.1.1.1.3.2.4.1.1.5.7 1.3.7.5 0 1.1-.2 1.5-.7.3-.4.6-.8.8-1.3l.4-.8-4.5-10.9h2.1zM143.5 207.6c-.8 0-1.4-.6-1.4-1.4 0-.8.6-1.4 1.4-1.4.8 0 1.4.6 1.4 1.4 0 .8-.6 1.4-1.4 1.4zm0 7.7c-.8 0-1.4-.6-1.4-1.4 0-.8.6-1.4 1.4-1.4.8 0 1.4.6 1.4 1.4 0 .8-.6 1.4-1.4 1.4zM168.9 215h-1.7v-12.9l-3 .9-.4-.9 3.9-2.1h1.2v15zM184.7 202.4l-1.2 1.2c-.2-.1-.2-.3-.3-.5-.5-1-1.5-1.8-2.9-1.8-1.3 0-2.6.7-3.4 2.1-.6 1.1-.8 2.4-.8 3.8 0 1.6.2 3.7 1.4 5.1.8.9 1.9 1.3 2.8 1.3.9 0 1.9-.3 2.7-.9v-3.6h-2.7v-1.5h4.3v5.8c-1.4 1-3 1.6-4.4 1.6-2.6 0-5.8-1.9-5.8-7.5 0-6.6 3.8-7.8 5.8-7.8 2 .2 3.7 1.2 4.5 2.7z"/></g><g class="st3"><path class="st5" d="M75.1 264.6s-.1 0-.1-.2c0-.1 0-.1-.1-.2-.4-.5-1.5-1.5-3-1.5-1.2 0-2.3.6-2.3 1.5 0 .4.2.9 1.1 1.3 1 .5 2.8.7 4 1.4 1.3.7 1.6 1.7 1.6 2.5 0 1.7-1.6 3.4-4.6 3.4-1.7 0-3.3-.5-4.6-1.7l1-1.7c.1.1.1.2.1.2 0 .1 0 .2.1.3.3.4 1.6 1.5 3.4 1.5 1.6 0 2.8-.7 2.8-1.7 0-.4-.2-1-1.1-1.4-.8-.4-2-.7-2.9-1-.6-.2-2.7-.9-2.7-2.8 0-1.6 1.7-3.1 4.2-3.1 1.6 0 3.1.6 4.1 1.7l-1 1.5zM88.3 265.3c.1.6.1 1.3.1 2.1h-7.8c.1 3.3 2.3 4.1 3.7 4.1 1.1 0 2.1-.4 2.8-1.2l1 .9c-.9 1.1-2.4 1.7-3.9 1.7-3 0-5.3-2-5.3-5.6 0-4 2.4-5.9 5-5.9 1.8 0 3.9.9 4.4 3.9zm-1.6.7c.2-1.8-1.1-3.3-2.8-3.3-1.2 0-2.8.8-3.2 3.3h6zM93.9 261.6l-.1 2.1c.7-1.6 2.3-2.4 3.9-2.4 1.2 0 2.2.5 2.9 1.2l-.8 1.7c-.2-.2-.3-.4-.4-.5-.3-.4-.9-.8-1.8-.8-.8 0-2.1.3-3.1 1.8-.7 1.2-.8 1.9-.8 2.6v5.3H92v-11h1.9zM104.8 261.6c0 .2-.1.3-.1.5v.2l3.2 8 1.8-4.1c.6-1.4 1.2-3 1.5-4.6h1.6c-.4 1.7-1 3.3-1.6 4.8l-2.7 6.3H107l-4.4-11.1h2.2zM120.7 261.6v9.6h2.6v1.4h-7.1v-1.4h2.8V263h-2.7v-1.4h4.4zm.4-3.5c0 .7-.6 1.2-1.2 1.2-.7 0-1.2-.6-1.2-1.2s.6-1.2 1.2-1.2 1.2.5 1.2 1.2zM135.5 264.9c-.2-.1-.1-.4-.2-.6-.1-.1-1-1.4-2.8-1.4-2 0-3.6 1.6-3.6 4.1 0 2.6 1.6 4.4 3.8 4.4 1.1 0 2.2-.5 2.9-1.3l1 1.2c-1 1.1-2.5 1.7-4 1.7-3.1 0-5.4-2.4-5.4-5.7 0-3.3 2.3-5.7 5.5-5.7 1.8 0 3.2.8 4.1 2l-1.3 1.3zM148.3 265.3c.1.6.1 1.3.1 2.1h-7.8c.1 3.3 2.3 4.1 3.7 4.1 1.1 0 2.1-.4 2.8-1.2l1 .9c-.9 1.1-2.4 1.7-3.9 1.7-3 0-5.3-2-5.3-5.6 0-4 2.4-5.9 5-5.9 1.8 0 3.9.9 4.4 3.9zm-1.6.7c.2-1.8-1.1-3.3-2.8-3.3-1.2 0-2.8.8-3.2 3.3h6zM159.1 264.6s-.1 0-.1-.2c0-.1 0-.1-.1-.2-.4-.5-1.5-1.5-3-1.5-1.2 0-2.3.6-2.3 1.5 0 .4.2.9 1.1 1.3 1 .5 2.8.7 4 1.4 1.3.7 1.6 1.7 1.6 2.5 0 1.7-1.6 3.4-4.6 3.4-1.7 0-3.3-.5-4.6-1.7l1-1.7c.1.1.1.2.1.2 0 .1 0 .2.1.3.3.4 1.6 1.5 3.4 1.5 1.6 0 2.8-.7 2.8-1.7 0-.4-.2-1-1.1-1.4-.8-.4-2-.7-2.9-1-.6-.2-2.7-.9-2.7-2.8 0-1.6 1.7-3.1 4.2-3.1 1.6 0 3.1.6 4.1 1.7l-1 1.5zM167.5 265.2c-.8 0-1.4-.6-1.4-1.4 0-.8.6-1.4 1.4-1.4.8 0 1.4.6 1.4 1.4 0 .8-.6 1.4-1.4 1.4zm0 7.7c-.8 0-1.4-.6-1.4-1.4 0-.8.6-1.4 1.4-1.4.8 0 1.4.6 1.4 1.4 0 .8-.6 1.4-1.4 1.4z"/></g><g class="st3"><path class="st5" d="M76.1 293.1v1.6h-8.6v-1.6h8.6zM99.5 293.7c-.2-.1-.1-.4-.2-.6-.1-.1-1-1.4-2.8-1.4-2 0-3.6 1.6-3.6 4.1 0 2.6 1.6 4.4 3.8 4.4 1.1 0 2.2-.5 2.9-1.3l1 1.2c-1 1.1-2.5 1.7-4 1.7-3.1 0-5.4-2.4-5.4-5.7 0-3.3 2.3-5.7 5.5-5.7 1.8 0 3.2.8 4.1 2l-1.3 1.3zM107.8 290.2c1.7 0 3.1.6 3.8 1.8.5.8.5 1.7.5 2.6v6.8h-1.6v-1.2c-1.2 1-2.6 1.5-3.9 1.5-2.3 0-3.7-1.5-3.7-3.1 0-1.2.8-2.5 2.5-3.1 1.4-.5 3.1-.5 4.7-.5h.4v-.4c0-.6 0-1.3-.4-1.9-.3-.5-1-1.1-2.3-1.1-1 0-2.2.3-3.1 1.2l-.8-1.1c1-1 2.4-1.5 3.9-1.5zm2.4 6.1c-1.1 0-2.6-.1-3.6.2-1.4.3-1.9 1.2-1.9 2 0 1 .8 1.9 2.3 1.9 1.4 0 2.5-.9 2.9-1.3.7-.8.7-1.5.7-2.1v-.7h-.4zM123.5 293.7c-.2-.1-.1-.4-.2-.6-.1-.1-1-1.4-2.8-1.4-2 0-3.6 1.6-3.6 4.1 0 2.6 1.6 4.4 3.8 4.4 1.1 0 2.2-.5 2.9-1.3l1 1.2c-1 1.1-2.5 1.7-4 1.7-3.1 0-5.4-2.4-5.4-5.7 0-3.3 2.3-5.7 5.5-5.7 1.8 0 3.2.8 4.1 2l-1.3 1.3zM127.4 285.5h2v.1c0 .1-.1.2-.2.3-.1.1-.1.1-.1.2v6.4c.8-1.2 2.2-2.2 3.6-2.2 1.2 0 2.4.7 2.9 1.9.4.9.4 1.8.4 2.6v6.6h-1.7v-6.6c0-.8 0-1.7-.6-2.4-.4-.5-.9-.7-1.5-.7-1.2 0-2.2 1-2.6 1.5-.5.6-.5 1.1-.5 1.9v6.3h-1.8v-15.9zM148.3 294.1c.1.6.1 1.3.1 2.1h-7.8c.1 3.3 2.3 4.1 3.7 4.1 1.1 0 2.1-.4 2.8-1.2l1 .9c-.9 1.1-2.4 1.7-3.9 1.7-3 0-5.3-2-5.3-5.6 0-4 2.4-5.9 5-5.9 1.8 0 3.9.9 4.4 3.9zm-1.6.7c.2-1.8-1.1-3.3-2.8-3.3-1.2 0-2.8.8-3.2 3.3h6zM76.1 321.9v1.6h-8.6v-1.6h8.6zM98.6 314.2h1.8c0 .2-.1.3-.1.4-.1.1-.1.2-.1.3v14.3c0 .3 0 .7.1 1h-1.7c-.1-.3-.1-.5-.1-.8v-1c-.7 1.2-2 2-3.4 2-2.1 0-4.4-1.8-4.4-5.8 0-4.2 2.5-5.7 4.6-5.7 1.5 0 2.7.8 3.2 1.9v-6.6zm-6.1 10.1c0 3.6 1.8 4.6 3.1 4.6 1.1 0 2.3-.8 2.7-2.1.2-.6.2-1.2.2-2 0-1.2 0-1.8-.2-2.3-.4-1.6-1.9-2.1-2.8-2.1-1.3 0-3 .8-3 3.9zM107.8 319c1.7 0 3.1.6 3.8 1.8.5.8.5 1.7.5 2.6v6.8h-1.6V329c-1.2 1-2.6 1.5-3.9 1.5-2.3 0-3.7-1.5-3.7-3.1 0-1.2.8-2.5 2.5-3.1 1.4-.5 3.1-.5 4.7-.5h.4v-.4c0-.6 0-1.3-.4-1.9-.3-.5-1-1.1-2.3-1.1-1 0-2.2.3-3.1 1.2l-.8-1.1c1-1 2.4-1.5 3.9-1.5zm2.4 6.1c-1.1 0-2.6-.1-3.6.2-1.4.3-1.9 1.2-1.9 2 0 1 .8 1.9 2.3 1.9 1.4 0 2.5-.9 2.9-1.3.7-.8.7-1.5.7-2.1v-.7h-.4zM120.1 316c.1.2-.1.4-.1.6-.1.6-.3 2.6-.3 2.6h3.6v1.4h-3.6c-.1 1.4-.2 2.9-.2 4.3 0 1.6.1 2 .1 2.1.2 1.3 1 1.8 1.8 1.8.7 0 1.5-.3 2.5-1l.5 1.4c-.9.7-2.2 1.2-3.5 1.2-1.1 0-2-.4-2.5-1.2-.6-.9-.6-2-.6-3 0-1.9.1-3.7.2-5.6h-2.6v-1.4h2.6l.2-2.9 1.9-.3zM131.8 319c1.7 0 3.1.6 3.8 1.8.5.8.5 1.7.5 2.6v6.8h-1.6V329c-1.2 1-2.6 1.5-3.9 1.5-2.3 0-3.7-1.5-3.7-3.1 0-1.2.8-2.5 2.5-3.1 1.4-.5 3.1-.5 4.7-.5h.4v-.4c0-.6 0-1.3-.4-1.9-.3-.5-1-1.1-2.3-1.1-1 0-2.2.3-3.1 1.2l-.8-1.1c1-1 2.4-1.5 3.9-1.5zm2.4 6.1c-1.1 0-2.6-.1-3.6.2-1.4.3-1.9 1.2-1.9 2 0 1 .8 1.9 2.3 1.9 1.4 0 2.5-.9 2.9-1.3.7-.8.7-1.5.7-2.1v-.7h-.4zM141.2 314.2c0 .1-.1.2-.1.3-.1.1-.1.1-.1.3v6.2c.7-1.2 2-1.9 3.4-1.9 2.2 0 4.4 1.8 4.4 5.6 0 4-2.3 5.9-4.6 5.9-1.3 0-2.5-.7-3.2-1.7l-.6 1.5h-1.1v-16h1.9zm0 7.9c-.2.6-.3 1.3-.3 2.3 0 .9 0 1.6.1 2.2.3 2.1 1.9 2.4 2.7 2.4 1.1 0 3.2-.6 3.2-4 0-3.9-2.2-4.5-3.2-4.5-1.1 0-2.1.6-2.5 1.6zM155.8 319c1.7 0 3.1.6 3.8 1.8.5.8.5 1.7.5 2.6v6.8h-1.6V329c-1.2 1-2.6 1.5-3.9 1.5-2.3 0-3.7-1.5-3.7-3.1 0-1.2.8-2.5 2.5-3.1 1.4-.5 3.1-.5 4.7-.5h.4v-.4c0-.6 0-1.3-.4-1.9-.3-.5-1-1.1-2.3-1.1-1 0-2.2.3-3.1 1.2l-.8-1.1c1-1 2.4-1.5 3.9-1.5zm2.4 6.1c-1.1 0-2.6-.1-3.6.2-1.4.3-1.9 1.2-1.9 2 0 1 .8 1.9 2.3 1.9 1.4 0 2.5-.9 2.9-1.3.7-.8.7-1.5.7-2.1v-.7h-.4zM171.1 322.2s-.1 0-.1-.2c0-.1 0-.1-.1-.2-.4-.5-1.5-1.5-3-1.5-1.2 0-2.3.6-2.3 1.5 0 .4.2.9 1.1 1.3 1 .5 2.8.7 4 1.4 1.3.7 1.6 1.7 1.6 2.5 0 1.7-1.6 3.4-4.6 3.4-1.7 0-3.3-.5-4.6-1.7l1-1.7c.1.1.1.2.1.2 0 .1 0 .2.1.3.3.4 1.6 1.5 3.4 1.5 1.6 0 2.8-.7 2.8-1.7 0-.4-.2-1-1.1-1.4-.8-.4-2-.7-2.9-1-.6-.2-2.7-.9-2.7-2.8 0-1.6 1.7-3.1 4.2-3.1 1.6 0 3.1.6 4.1 1.7l-1 1.5zM184.3 322.9c.1.6.1 1.3.1 2.1h-7.8c.1 3.3 2.3 4.1 3.7 4.1 1.1 0 2.1-.4 2.8-1.2l1 .9c-.9 1.1-2.4 1.7-3.9 1.7-3 0-5.3-2-5.3-5.6 0-4 2.4-5.9 5-5.9 1.8 0 3.9.9 4.4 3.9zm-1.6.7c.2-1.8-1.1-3.3-2.8-3.3-1.2 0-2.8.8-3.2 3.3h6z"/></g><circle class="st5" cx="17.1" cy="20.7" r="9.3"/><circle class="st5" cx="43.3" cy="20.7" r="9.3"/><circle class="st5" cx="69.6" cy="20.7" r="9.3"/></svg>