<svg version="1.1" id="Layer_1" xmlns="http://www.w3.org/2000/svg" x="0" y="0" viewBox="0 0 543 355.6" xml:space="preserve"><style>.st2{fill:none}.st3{fill:#666}.st4{font-family:&apos;Inconsolata&apos;}.st5{font-size:24px}.st6{fill:#fff}</style><path d="M542 345.1c0 3.8-2.9 7-6.4 7H7.4c-3.5 0-6.4-3.2-6.4-7V7.9c0-3.8 2.9-7 6.4-7h528.2c3.5 0 6.4 3.2 6.4 7v337.2z" fill="#bfc1c3"/><path fill="#262626" stroke="#969696" stroke-miterlimit="10" d="M6.2 38.3h530.1v309.5H6.2z"/><path class="st2" d="M20.7 55h485v278.9h-485z"/><text transform="translate(20.738 71.005)" class="st3 st4 st5">4</text><text transform="translate(20.738 99.805)" class="st3 st4 st5">5</text><text transform="translate(20.738 128.605)" class="st3 st4 st5">6</text><text transform="translate(20.738 157.405)" class="st3 st4 st5">7</text><text transform="translate(20.738 186.205)" class="st3 st4 st5">8</text><text transform="translate(20.738 215.005)" class="st3 st4 st5">9</text><text transform="translate(20.738 243.805)" class="st3 st4 st5">10</text><text transform="translate(20.738 272.605)" class="st3 st4 st5">11</text><text transform="translate(20.738 301.405)" class="st3 st4 st5">12</text><text transform="translate(20.738 330.205)" class="st3 st4 st5">13</text><path class="st2" d="M65.7 55h485v278.9h-485z"/><text transform="translate(65.738 71.005)" class="st6 st4 st5">routes:</text><text transform="translate(65.738 99.805)" class="st6 st4 st5">- route: www.myapp.example.gov.uk</text><text transform="translate(65.738 157.405)" class="st6 st4 st5">instances: 4</text><text transform="translate(65.738 215.005)" class="st6 st4 st5">memory: 1G</text><text transform="translate(65.738 272.605)" class="st6 st4 st5">services:</text><text transform="translate(65.738 301.405)"><tspan x="0" y="0" class="st6 st4 st5">- cache</tspan><tspan x="0" y="28.8" class="st6 st4 st5">- database</tspan></text><circle class="st6" cx="17.1" cy="20.7" r="9.3"/><circle class="st6" cx="43.3" cy="20.7" r="9.3"/><circle class="st6" cx="69.6" cy="20.7" r="9.3"/></svg>